<?xml version="1.0" encoding="UTF-8" standalone="no"?>
<!-- Created with Inkscape (http://www.inkscape.org/) -->

<svg
   width="150mm"
   height="150mm"
   viewBox="0 0 150 150"
   version="1.1"
   id="svg1"
   inkscape:version="1.4 (e7c3feb1, 2024-10-09)"
   sodipodi:docname="monkey-1.svg"
   xmlns:inkscape="http://www.inkscape.org/namespaces/inkscape"
   xmlns:sodipodi="http://sodipodi.sourceforge.net/DTD/sodipodi-0.dtd"
   xmlns="http://www.w3.org/2000/svg"
   xmlns:svg="http://www.w3.org/2000/svg">
  <sodipodi:namedview
     id="namedview1"
     pagecolor="#ffffff"
     bordercolor="#000000"
     borderopacity="0.25"
     inkscape:showpageshadow="2"
     inkscape:pageopacity="0.0"
     inkscape:pagecheckerboard="0"
     inkscape:deskcolor="#d1d1d1"
     inkscape:document-units="mm"
     inkscape:zoom="0.37059484"
     inkscape:cx="356.18413"
     inkscape:cy="554.51393"
     inkscape:window-width="1152"
     inkscape:window-height="688"
     inkscape:window-x="1920"
     inkscape:window-y="57"
     inkscape:window-maximized="0"
     inkscape:current-layer="layer1" />
  <defs
     id="defs1" />
  <g
     inkscape:label="Calque 1"
     inkscape:groupmode="layer"
     id="layer1">
    <path
       d="m 41.893764,29.013348 c 0.776112,0.81139 1.834445,3.06917 1.834445,3.84528 -0.03528,0.24694 -0.352778,-0.10584 -0.705556,-0.84667 -0.776111,-1.44639 -2.257778,-2.75167 -3.139722,-2.75167 -0.458611,0 -0.423333,0.14111 0.211667,0.635 0.740833,0.59973 2.2225,2.82223 2.2225,3.35139 0,0.14111 -0.564445,-0.38805 -1.27,-1.16416 -0.705556,-0.77612 -1.552223,-1.41112 -1.869723,-1.41112 -0.811389,0 -1.446389,0.70556 -1.446389,1.55223 0,0.70555 0.03528,0.70555 0.564445,-0.0706 0.670278,-0.98778 1.622778,-0.56444 2.469444,1.09361 l 0.564445,1.12889 -1.058333,-1.02305 c -0.917223,-0.84667 -1.199445,-0.9525 -1.658056,-0.56445 -0.740833,0.59972 -0.670278,1.41111 0.141111,1.41111 0.388056,0 1.058333,0.59972 1.622778,1.48167 0.529167,0.84667 2.645833,3.13972 4.727222,5.15056 2.046112,2.01083 3.35139,3.45722 2.857501,3.24555 -0.811389,-0.38805 -0.811389,-0.3175 0.176389,0.59972 0.599722,0.52917 1.622777,1.44639 2.293055,1.97556 1.093611,0.88194 1.128889,0.98778 0.352778,0.77611 -1.058333,-0.3175 -0.776111,0 1.340556,1.51694 1.093611,0.77612 1.340555,1.09362 0.917222,1.19945 -0.388056,0.0705 0.07055,0.56444 1.411111,1.48167 2.046111,1.41111 2.786945,2.11666 1.834445,1.76388 -1.058334,-0.38805 -0.564445,0.14112 0.987778,1.12889 0.881944,0.56445 1.481666,1.12889 1.411111,1.27 -0.105834,0.14112 0.388055,0.56445 1.093611,0.88195 0.740833,0.35278 1.199444,0.77611 1.093611,1.05833 -0.105833,0.28222 0.07056,0.45861 0.423333,0.45861 0.811389,0 4.550834,-0.635 5.432774,-0.91722 0.49389,-0.14111 0.635,-0.0705 0.49389,0.17639 -0.3175,0.49389 -0.24694,0.49389 1.55222,-0.14111 1.94028,-0.67028 2.32834,-0.67028 1.72862,0.0353 -0.3175,0.38805 0.10583,0.28222 1.34055,-0.35278 2.11667,-1.05833 2.50472,-1.12889 1.86972,-0.38806 -0.56444,0.67028 -0.42333,0.67028 3.45723,-0.3175 1.76388,-0.45861 3.24555,-0.77611 3.24555,-0.74083 0,0.0706 -1.16417,0.67028 -2.54,1.37583 -2.92805,1.37584 -5.36222,3.56306 -4.55083,4.05695 0.38805,0.24694 0.3175,0.38805 -0.24695,0.70555 -0.42333,0.21167 -0.9525,0.74084 -1.16416,1.12889 -0.3175,0.59972 -0.28223,0.70556 0.10583,0.49389 0.24694,-0.14111 -0.21167,0.42333 -1.05833,1.30528 -0.81139,0.84667 -1.41112,1.65805 -1.30528,1.72861 0.10583,0.10583 -1.23472,1.62278 -2.92806,3.35139 -3.668885,3.70417 -7.86694,6.42056 -12.347218,8.00806 -2.751667,0.98777 -3.492501,1.12888 -7.126112,1.09361 -3.527778,0 -4.445,-0.10584 -6.879167,-0.9525 -5.644445,-1.97556 -9.948334,-5.75028 -12.488334,-10.97139 -1.763889,-3.66889 -2.328334,-5.96195 -2.293056,-9.91306 0.03528,-8.64306 3.986389,-14.67556 9.630834,-14.74611 2.081389,-0.0353 3.421945,0.74083 4.1275,2.43417 0.423334,1.02305 0.423334,1.37583 0,2.39888 -0.493889,1.19945 -2.081389,2.32834 -3.210278,2.32834 -0.811389,0 -0.635,1.30528 0.246945,1.905 2.822222,1.97555 6.949722,-1.41111 6.985,-5.715 0,-3.06917 -1.869722,-5.75028 -4.903611,-7.02028 -1.869723,-0.81139 -6.103056,-0.49389 -8.325556,0.59972 -3.598334,1.72861 -7.126112,6.56167 -8.466668,11.64167 -0.705555,2.64583 -0.705555,10.37167 0.03528,13.40556 1.622778,6.91444 7.408334,14.04055 14.075835,17.39194 3.81,1.905005 6.702778,2.540005 11.465278,2.540005 3.880556,-0.0353 4.691945,-0.14111 6.808612,-0.9525 1.305277,-0.49389 2.363611,-0.81139 2.363611,-0.67028 0,0.10584 -0.352778,0.77611 -0.740834,1.44639 -0.529166,0.84667 -0.599722,1.05834 -0.176388,0.74084 0.3175,-0.24695 0.564444,-0.35278 0.564444,-0.24695 0,0.52917 -1.199445,2.57528 -2.081389,3.4925 -0.776111,0.84667 -0.811389,0.9525 -0.211667,0.74083 0.388056,-0.14111 0.917223,-0.38805 1.164167,-0.59972 0.776111,-0.59972 0.423333,0.24695 -0.635,1.48167 -0.564444,0.67028 -1.446389,1.48167 -2.010833,1.83444 l -0.987778,0.67028 h 0.881944 c 0.776111,0 0.811389,0.0706 0.3175,0.52917 -0.282222,0.3175 -1.234722,0.67028 -2.116667,0.81139 -1.375833,0.24694 -1.446389,0.3175 -0.705555,0.56444 1.199444,0.42334 0.282222,0.88195 -1.728611,0.9525 -0.881945,0 -1.375834,0.10584 -1.128889,0.21167 1.058333,0.42333 0.246944,0.635 -2.116667,0.56444 -1.728611,-0.0705 -2.328334,0 -1.869722,0.21167 0.846666,0.38806 -5.150556,0.77611 -10.830279,0.74083 h -3.739445 l -2.786944,3.24556 c -1.552223,1.799167 -3.386667,3.598327 -4.092223,3.986387 -1.234722,0.635 -1.411111,0.67028 -2.293055,0.14111 -0.740834,-0.42333 -0.9525,-0.77611 -0.917223,-1.65806 0.07056,-1.23472 -0.246944,-1.41111 -0.881944,-0.635 -0.811389,0.98778 -0.3175,2.75167 1.023055,3.66889 1.058334,0.70556 1.516945,0.81139 3.104445,0.67028 1.023056,-0.10583 2.151945,-0.38806 2.469445,-0.635 0.3175,-0.21167 -0.07056,0.24694 -0.881945,1.05833 -1.199444,1.16417 -1.763889,1.44639 -2.822222,1.48167 -1.128889,0 -1.234723,0.0706 -0.564445,0.3175 0.458611,0.17639 1.622778,0.17639 2.822223,0 2.046111,-0.35278 2.610555,-0.67028 6.455833,-3.81 1.587501,-1.30528 2.046112,-1.48167 3.527778,-1.48167 1.093612,0 1.834445,0.17639 2.010834,0.49389 0.282222,0.45861 2.469444,0.88195 5.679722,1.02306 0.9525,0.0353 1.446389,0.21166 1.340556,0.45861 -0.105833,0.24694 0.105833,0.35278 0.423333,0.3175 2.786945,-0.56445 2.998612,-0.56445 2.504723,0.0705 -0.458611,0.52917 -0.388056,0.56445 0.599722,0.35278 0.635,-0.10583 1.5875,-0.3175 2.116667,-0.45861 0.9525,-0.24694 0.987778,-0.21167 0.493889,0.38806 -0.493889,0.59972 -0.458611,0.635 0.529167,0.42333 0.599722,-0.14111 1.446388,-0.35278 1.940277,-0.45861 0.811389,-0.24695 0.846667,-0.21167 0.352778,0.38805 -0.493889,0.59973 -0.458611,0.635 0.811389,0.38806 0.740834,-0.14111 1.5875,-0.35278 1.869722,-0.45861 0.352778,-0.14111 0.423334,0 0.246945,0.45861 -0.423333,1.12889 4.1275,-2.71639 6.632223,-5.60917 5.009444,-5.785547 9.066389,-12.982217 11.606389,-20.531662 0.77611,-2.32834 1.41111,-3.91584 1.41111,-3.52778 0,1.34055 -1.05834,5.29166 -2.68111,10.054165 -1.48167,4.33917 -1.5875,4.86834 -1.19945,5.82084 0.38806,0.88194 0.49389,0.9525 0.635,0.38805 0.10583,-0.56444 0.38806,-0.42333 1.72861,0.88195 1.34056,1.30528 1.55223,1.41111 1.34056,0.70555 -0.24695,-0.77611 -0.10583,-0.74083 1.41111,0.52917 1.51694,1.23472 1.65806,1.27 1.41111,0.52917 -0.24694,-0.81139 -0.17639,-0.81139 2.15195,0.49389 4.1275,2.29305 4.37444,2.46944 4.37444,2.68111 0,0.10583 -0.91722,0.38805 -2.01083,0.635 -2.2225,0.42333 -5.04473,1.658047 -5.04473,2.187217 0,0.21167 0.17639,0.24694 0.35278,0.14111 0.21167,-0.10583 0.35278,-0.10583 0.35278,0.0706 0,0.14111 -0.67028,0.56444 -1.51694,0.91722 -0.98778,0.42333 -1.34056,0.70555 -1.05834,0.88194 0.52917,0.3175 -9.807217,5.46806 -12.100273,6.06778 l -1.446389,0.35278 -0.211666,2.36361 c -0.141111,1.34056 -0.246945,3.70417 -0.246945,5.29167 0,3.70416 -0.352778,4.69194 -1.693333,4.69194 -0.564445,0 -1.305278,-0.3175 -1.658056,-0.70555 -0.846667,-0.91723 -1.234722,-0.88195 -1.234722,0.10583 0,1.905 2.54,2.82222 4.691945,1.72861 1.622777,-0.84667 1.728611,-0.67028 0.176388,0.28222 -1.411111,0.84667 -2.434166,0.88195 -3.845278,0.14111 -1.058333,-0.52916 -1.058333,-0.52916 -0.670277,0.21167 0.917222,1.69334 3.633611,1.72861 5.432778,0.0706 1.023055,-0.9525 0.9525,-0.49389 -0.105834,0.77611 -0.529166,0.635 -0.529166,0.635 0.176389,0.28222 0.388056,-0.21167 1.199445,-0.84667 1.799167,-1.37583 1.128889,-1.05834 1.27,-1.62278 1.693334,-6.17361 0.141111,-1.51695 0.423333,-2.50473 0.811388,-2.8575 0.740834,-0.67028 3.351394,-1.76389 3.069164,-1.30528 -0.3175,0.52916 0.0353,0.42333 1.5875,-0.35278 1.55222,-0.77611 1.905,-0.88194 1.5875,-0.35278 -0.28222,0.49389 2.43417,-0.52916 4.65667,-1.72861 1.83444,-0.98778 2.32833,-1.02305 1.44639,-0.0353 -0.42334,0.42334 1.65805,-0.67027 3.95111,-2.08139 l 0.88194,-0.52916 -0.70555,0.81139 -0.70556,0.84666 0.84667,-0.45861 c 0.45861,-0.24694 1.55222,-1.09361 2.46944,-1.905 1.30528,-1.16417 1.48167,-1.27 0.98778,-0.49389 -0.9525,1.48167 -0.17639,1.19945 1.97555,-0.77611 1.58751,-1.44639 1.90501,-1.62278 1.76389,-0.98778 -0.10583,0.59973 0.28223,0.35278 1.69334,-1.12889 0.98778,-1.05833 1.72861,-1.65805 1.62278,-1.30527 -0.45862,1.27 0.49388,0.17639 1.41111,-1.62278 0.77611,-1.587497 0.9525,-1.728607 1.19944,-1.12889 0.17639,0.49389 0.28222,0.0706 0.28222,-1.269997 0.0353,-1.83444 -0.10583,-2.18722 -1.5875,-4.23333 -2.15194,-2.96334 -7.26722,-8.00806 -9.77194,-9.66612 -1.09361,-0.74083 -2.01084,-1.37583 -2.01084,-1.41111 0,-0.17639 3.38667,-2.469445 3.59834,-2.398895 0.10583,0.0353 0.74083,-0.49388 1.34055,-1.19944 0.77611,-0.88194 1.19945,-1.12889 1.41112,-0.84667 0.17638,0.3175 0.52916,0 1.05833,-0.91722 0.70555,-1.16417 0.84667,-1.23472 1.05833,-0.67028 0.17639,0.56445 0.45861,0.28223 1.55222,-1.5875 0.9525,-1.62277 1.27,-1.97555 1.16417,-1.30527 -0.24694,1.5875 0.21167,1.12888 1.34056,-1.37584 0.88194,-2.04611 1.05833,-2.2225 1.23472,-1.48167 0.3175,1.19945 2.36361,-6.35 2.8575,-10.44222 0.21167,-1.76389 0.635,-3.63361 0.91722,-4.16278 0.67028,-1.34055 2.434163,-2.01083 5.291663,-2.01083 2.25778,0 2.32833,-0.0353 1.5875,-0.56444 -1.02306,-0.70556 -1.83445,-2.32834 -1.83445,-3.66889 0,-0.77611 -0.38805,-1.5875 -1.23472,-2.57528 -1.37583,-1.5875 -1.58749,-3.10445 -0.67028,-4.40972 0.81139,-1.19945 1.86973,-1.62278 4.33917,-1.83445 l 2.25778,-0.17639 -2.43417,-1.65805 c -4.02167,-2.75167 -6.843883,-3.35139 -10.618603,-2.2225 -1.905,0.56444 -4.83306,2.46944 -4.51556,2.96333 0.0706,0.17639 -0.74083,0.91722 -1.86972,1.65806 -2.57528,1.72861 -2.43417,1.62277 -1.83444,1.83444 0.91722,0.28222 3.66889,3.35139 4.51555,5.00945 0.49389,0.98777 0.56445,1.27 0.17639,0.70555 -2.11666,-2.8575 -3.88055,-4.23333 -6.87917,-5.29167 -1.62277,-0.56444 -2.50472,-0.635 -4.86833,-0.45861 -2.64583,0.21167 -2.82222,0.24695 -2.08139,0.67028 0.635,0.35278 0.70556,0.45861 0.24695,0.49389 -0.3175,0 -1.41111,0.17639 -2.39889,0.38806 -1.48167,0.3175 -1.72861,0.45861 -1.37584,0.88194 0.35278,0.42333 0.10584,0.49389 -1.37583,0.49389 -0.98778,0 -1.905,0.17639 -2.04611,0.38805 -0.21167,0.38806 -1.41111,0.28223 -2.71639,-0.21166 -0.49388,-0.21167 -0.56444,-0.10584 -0.35277,0.38805 0.24694,0.70556 -0.0706,0.56445 -1.97556,-0.84666 -1.16417,-0.88195 -1.19944,-0.88195 -1.02306,-0.14111 0.3175,1.12888 -0.21166,0.9525 -1.481661,-0.56445 -0.705556,-0.84667 -1.058334,-1.05833 -0.917223,-0.59972 0.141111,0.45861 -0.246944,0.17639 -1.023055,-0.70556 -0.740834,-0.84666 -1.164167,-1.12889 -1.023056,-0.70555 0.176389,0.52916 -0.07055,0.38805 -1.023056,-0.49389 -0.776111,-0.74083 -1.305277,-1.02306 -1.305277,-0.74083 0,0.28222 -0.529167,0 -1.234723,-0.70556 -0.670278,-0.67028 -1.234722,-1.05833 -1.234722,-0.88194 0,0.17638 -0.388056,-0.0353 -0.811389,-0.49389 -0.458611,-0.42334 -1.199444,-0.84667 -1.658056,-0.91723 -0.423333,-0.0705 -1.058333,-0.38805 -1.411111,-0.70555 -0.3175,-0.28222 -0.670278,-0.45861 -0.740833,-0.38806 -0.07056,0.0706 -1.093611,-0.52916 -2.257778,-1.34055 l -2.081389,-1.44639 -0.458611,-2.57528 c -0.211667,-1.37583 -0.493889,-2.68111 -0.635,-2.89278 -0.423334,-0.67028 -0.846667,-0.35278 -0.9525,0.77611 l -0.141111,1.16417 -0.493889,-1.51694 c -0.246945,-0.84667 -0.9525,-1.905 -1.516945,-2.39889 -1.27,-1.05834 -2.046111,-1.12889 -1.023056,-0.0353 z m 55.033333,14.21694 c 0.88195,0.59973 0.98778,1.76389 0.24695,2.75167 -0.42334,0.56445 -0.42334,0.77611 0.0705,1.48167 1.27,1.94028 -0.9525,2.64583 -2.75166,0.88194 -0.81139,-0.84666 -1.02306,-1.34055 -1.02306,-2.61055 0,-1.51695 0.52917,-2.36361 1.76389,-2.82223 0.81139,-0.28222 0.84667,-0.28222 1.69333,0.3175 z M 61.614043,122.46419 c -0.07055,0.45861 -0.141111,0.17639 -0.141111,-0.59972 -0.03528,-0.77612 0.03528,-1.12889 0.141111,-0.81139 0.07056,0.35277 0.07056,0.98777 0,1.41111 z"
       id="path7"
       style="stroke-width:0.0352778" />
    <path
       d="m 94.951547,43.935848 c -0.45861,0.3175 -0.77611,0.91722 -0.77611,1.48167 0,1.27 1.23472,3.24555 2.04611,3.24555 1.05833,0 1.19944,-0.42333 0.35277,-1.30528 -0.70555,-0.74083 -0.70555,-0.84666 -0.17638,-1.44638 1.27,-1.41112 0.0705,-3.03389 -1.44639,-1.97556 z"
       id="path8"
       style="stroke-width:0.0352778" />
    <path
       d="m 103.52404,44.253348 c -1.19945,1.16417 -1.16417,2.61056 0.14111,3.84528 0.74083,0.70555 1.05833,1.41111 1.19944,2.68111 0.24695,2.01083 0.77611,2.96333 1.905,3.4925 1.19945,0.56444 2.04611,0.49389 2.68111,-0.24695 1.19945,-1.34055 0.77612,-1.79916 -1.76388,-1.94027 l -2.39889,-0.10584 2.39889,-0.0705 c 2.36361,-0.0706 2.36361,-0.0706 2.36361,-1.09361 0,-0.67028 -0.49389,-1.5875 -1.41111,-2.71639 -1.51695,-1.83445 -1.65806,-2.43417 -0.88195,-3.45722 0.74083,-0.98778 0.35278,-1.27 -1.62278,-1.27 -1.41111,0 -1.94028,0.17638 -2.61055,0.88194 z m 2.57528,2.36361 c -0.0706,0.45861 -0.24695,0.81139 -0.45862,0.81139 -0.17638,0 -0.38805,-0.35278 -0.45861,-0.81139 -0.0705,-0.52917 0.0706,-0.77611 0.45861,-0.77611 0.38806,0 0.52917,0.24694 0.45862,0.77611 z"
       id="path10"
       style="stroke-width:0.0352778" />
    <path
       d="m 100.98405,56.600568 c -1.481673,0.635 -1.869733,1.48167 -1.869733,3.98639 0,1.76389 0.17639,2.32834 1.058343,3.52778 1.23472,1.72861 1.51693,1.83444 1.19944,0.49389 l -0.17639,-0.9525 0.70555,0.81139 c 0.38805,0.45861 1.05833,1.27 1.44639,1.76389 l 0.74083,0.9525 -0.21167,-0.88195 c -0.17638,-0.84666 -0.17638,-0.84666 0.59973,0.14111 2.78694,3.59834 5.22111,5.50334 7.16139,5.50334 0.635,0 0.635,-0.0706 -0.17639,-0.70556 -1.12889,-0.88194 -0.9525,-0.88194 1.34055,0 2.2225,0.84667 2.78695,0.91722 2.2225,0.21167 -0.3175,-0.38806 0.0353,-0.35278 1.34056,0.17639 2.2225,0.81139 2.75167,0.84666 2.15194,0.14111 -0.56444,-0.70556 -0.38805,-0.67028 1.76389,0.17639 2.15195,0.84666 2.32834,0.88194 1.76389,0.17639 -0.56444,-0.67028 -0.10583,-0.67028 1.05834,0 1.09361,0.635 1.55222,0.67027 1.19944,0.10583 -0.17639,-0.28222 -0.0706,-0.3175 0.42333,-0.10583 0.35278,0.14111 1.69334,0.3175 2.96334,0.35277 2.50472,0.0706 10.08944,2.04612 10.90083,2.8575 0.42333,0.35278 0.42333,0.635 0.10583,1.37584 -0.45861,1.02305 -0.21166,1.12889 0.9525,0.3175 0.81139,-0.56445 0.84667,-1.05834 0.21167,-2.78695 -0.24694,-0.70555 -0.21167,-0.70555 0.3175,-0.0353 0.3175,0.38805 0.56445,1.19944 0.56445,1.76388 0.0353,1.02306 0.0353,1.05834 0.52916,0.42334 0.74084,-0.98778 0.67028,-1.69334 -0.3175,-3.13972 -0.49389,-0.70556 -0.67028,-1.19945 -0.42333,-1.09362 0.21167,0.0706 0.70555,0.59973 1.02305,1.12889 0.635,0.9525 0.635,0.9525 0.38806,0.0706 -0.10583,-0.49389 -0.52917,-1.44639 -0.9525,-2.11667 l -0.70556,-1.23472 0.74084,0.70555 c 0.42333,0.38806 0.98778,1.34056 1.30528,2.11667 l 0.52916,1.41111 -0.21166,-1.41111 c -0.14112,-0.9525 -0.59973,-1.83444 -1.48167,-2.75167 -1.62278,-1.65805 -3.13972,-2.11666 -5.43278,-1.5875 -1.55222,0.35278 -2.01083,0.3175 -4.86833,-0.59972 -1.76389,-0.56444 -2.99861,-1.12889 -2.78695,-1.27 0.49389,-0.28222 -0.59972,-0.56444 -3.73944,-0.88194 -2.11667,-0.21167 -2.32834,-0.28222 -1.5875,-0.59972 0.81139,-0.3175 0.67028,-0.38806 -1.30528,-0.74084 -2.04611,-0.35278 -3.28083,-0.88194 -2.18722,-0.9525 1.16416,-0.0353 -1.16417,-0.635 -3.42195,-0.84666 -3.63361,-0.35278 -4.37444,-0.67028 -6.6675,-3.03389 -3.28083,-3.31611 -5.50333,-4.1275 -8.18443,-2.96334 z"
       id="path11"
       style="stroke-width:0.0352778" />
    <path
       d="m 16.211541,104.1903 c 0,0.59972 1.128889,2.32833 1.834444,2.82222 1.093611,0.77611 3.210278,0.70556 4.198056,-0.10583 l 0.846667,-0.70556 -1.481667,0.21167 c -2.046111,0.28222 -3.210278,-0.10584 -4.409723,-1.37584 -0.529166,-0.56444 -0.987777,-0.9525 -0.987777,-0.84666 z"
       id="path16"
       style="stroke-width:0.0352778" />
  </g>
</svg>
