<?xml version="1.0" encoding="UTF-8" standalone="no"?>
<!-- Created with Inkscape (http://www.inkscape.org/) -->

<svg
   width="150mm"
   height="150mm"
   viewBox="0 0 150 150"
   version="1.1"
   id="svg1"
   xml:space="preserve"
   inkscape:version="1.4 (e7c3feb1, 2024-10-09)"
   sodipodi:docname="monkey-2.svg"
   xmlns:inkscape="http://www.inkscape.org/namespaces/inkscape"
   xmlns:sodipodi="http://sodipodi.sourceforge.net/DTD/sodipodi-0.dtd"
   xmlns="http://www.w3.org/2000/svg"
   xmlns:svg="http://www.w3.org/2000/svg"><sodipodi:namedview
     id="namedview1"
     pagecolor="#ffffff"
     bordercolor="#000000"
     borderopacity="0.25"
     inkscape:showpageshadow="2"
     inkscape:pageopacity="0.0"
     inkscape:pagecheckerboard="0"
     inkscape:deskcolor="#d1d1d1"
     inkscape:document-units="mm"
     inkscape:zoom="0.18529742"
     inkscape:cx="221.2659"
     inkscape:cy="283.32829"
     inkscape:window-width="1152"
     inkscape:window-height="688"
     inkscape:window-x="1920"
     inkscape:window-y="57"
     inkscape:window-maximized="0"
     inkscape:current-layer="layer1" /><defs
     id="defs1" /><g
     inkscape:label="Calque 1"
     inkscape:groupmode="layer"
     id="layer1"><path
       d="m 34.255925,26.626078 c -1.516945,0.49389 -3.563056,2.39889 -3.563056,3.38666 0,0.38806 0.176389,0.74084 0.352778,0.74084 0.211666,0 0.141111,0.35277 -0.141112,0.81139 -0.352777,0.49389 -0.423333,0.9525 -0.211666,1.27 0.246944,0.42333 0.564444,0.38805 2.046111,-0.24695 2.010833,-0.88194 3.386667,-0.9525 4.621389,-0.3175 1.234722,0.635 1.305278,1.23472 0.141111,1.69334 -1.411111,0.52916 -2.575278,1.72861 -2.575278,2.64583 0,1.16417 0.529167,1.34055 0.987778,0.3175 0.282222,-0.56445 0.776111,-0.91722 1.552222,-1.02306 2.963334,-0.45861 5.256389,-0.52916 6.032501,-0.24694 0.529166,0.21167 2.2225,2.18722 4.233333,5.08 1.869722,2.61055 4.056945,5.32694 4.868334,6.0325 1.869722,1.5875 4.656667,2.64583 8.184445,3.13972 1.481666,0.21167 2.716389,0.52917 2.716389,0.67028 0,0.56444 -6.84389,0.28222 -8.713612,-0.38806 -1.023055,-0.35277 -1.869722,-0.56444 -1.869722,-0.49388 0,0.0705 0.740833,0.59972 1.693333,1.19944 2.257778,1.41111 5.644445,2.43417 9.242779,2.75167 2.8575,0.24694 2.928055,0.28222 1.763889,0.635 -1.199445,0.38805 -1.128889,0.38805 1.058333,0.42333 1.27,0 3.386667,-0.21167 4.7625,-0.49389 1.340556,-0.28222 2.54,-0.52917 2.645834,-0.52917 0.105833,0 -0.599722,0.56445 -1.552223,1.23473 -1.940277,1.37583 -1.552222,1.5875 1.375834,0.70555 0.9525,-0.28222 1.799167,-0.45861 1.869722,-0.38805 0.03528,0.0705 -0.564444,0.70555 -1.375833,1.41111 -1.516945,1.30528 -1.305278,1.62278 0.599722,0.91722 1.552222,-0.59972 1.411111,-0.14111 -0.599722,1.79917 -1.058334,1.02305 -1.658056,1.76389 -1.375834,1.65805 0.282223,-0.10583 1.128889,-0.45861 1.834445,-0.77611 1.164167,-0.49389 1.305278,-0.49389 1.128889,-0.0353 -0.211667,0.49389 -2.575278,2.50473 -4.233334,3.59834 -0.564444,0.38805 -0.529166,0.38805 0.3175,0.10583 1.234723,-0.42333 1.305278,-0.42333 1.305278,0.0353 0,0.21166 -0.881944,1.30528 -2.010833,2.46944 -2.081389,2.18723 -2.151945,2.43417 -0.423334,1.51695 0.599723,-0.28222 1.164167,-0.45861 1.27,-0.38806 0.3175,0.3175 -2.2225,1.94028 -5.891389,3.77472 -2.046111,1.02306 -4.1275,2.15195 -4.656667,2.54 -0.705555,0.49389 -1.5875,0.67028 -3.527778,0.70556 -3.069167,0.0353 -4.586111,-0.52917 -6.738056,-2.50472 -1.905,-1.76389 -3.139722,-4.23334 -4.092222,-8.32556 -1.446389,-6.24417 -2.645834,-8.74889 -5.573889,-11.53583 -2.187223,-2.08139 -4.127501,-2.89278 -7.302501,-3.06917 -1.516944,-0.0705 -3.386666,0.0706 -4.162778,0.28222 -2.257777,0.70556 -4.268611,2.78695 -5.009444,5.22111 l -0.246945,0.81139 1.516945,-0.88194 c 1.834444,-1.02306 4.586111,-1.44639 6.526389,-0.91722 3.316111,0.91722 6.385278,4.23333 7.514167,8.255 1.975555,6.77333 2.610556,8.67833 3.421944,10.30111 1.940278,3.88055 4.903612,6.45583 9.278057,7.97278 1.27,0.42333 2.363611,0.84666 2.434166,0.88194 0.07056,0.0706 -0.07055,0.88195 -0.3175,1.869717 l -0.423333,1.76389 -2.504722,0.74084 c -3.280834,0.98777 -4.93889,1.97555 -8.466668,5.00944 -1.5875,1.37583 -3.175,2.61056 -3.598333,2.75167 -0.388056,0.14111 -2.010834,0.42333 -3.598333,0.67028 -3.668889,0.45861 -5.115278,1.19944 -8.219723,4.1275 -1.763889,1.69333 -2.469445,2.575265 -2.469445,3.210265 0,0.67028 0.141112,0.84667 0.564445,0.67028 0.423333,-0.17639 0.529167,0 0.423333,0.88195 -0.141111,1.5875 0.423334,1.41111 1.693334,-0.49389 1.093611,-1.65806 3.069166,-3.421945 4.797778,-4.339165 1.658055,-0.84667 1.552222,-0.52917 -0.176389,0.52917 -2.645834,1.693325 -4.480278,3.809995 -4.480278,5.150545 0,1.23473 0.917222,2.43417 1.199444,1.55223 0.105834,-0.28223 0.352778,-1.09362 0.564445,-1.79917 0.493889,-1.5875 1.552222,-2.50472 4.092222,-3.457215 2.504722,-0.91723 4.374445,-0.9525 4.374445,-0.0706 0,0.881935 -1.093612,1.834435 -2.151945,1.834435 -0.458611,0 -1.058333,0.14112 -1.340555,0.31751 -0.811389,0.52916 0.176389,1.44638 1.552222,1.44638 1.411111,0 3.386667,-1.37583 5.3975,-3.774715 1.693333,-2.01083 3.915834,-3.28083 9.419167,-5.25639 4.974167,-1.83444 7.196667,-3.31611 9.38389,-6.27944 1.023055,-1.37584 1.375833,-1.23472 0.635,0.24694 l -0.388056,0.77611 0.705556,-0.70555 c 0.423333,-0.38806 1.305278,-1.65806 2.046111,-2.82222 1.023056,-1.69334 1.234722,-1.90501 1.093611,-1.05834 -0.105833,0.56445 -0.3175,1.37584 -0.423333,1.76389 -0.211667,0.67028 0.670278,-0.635 2.081389,-3.06917 l 0.670278,-1.164157 0.246944,1.305267 c 0.282222,1.58751 2.293056,5.00945 3.633612,6.13834 0.564444,0.45861 1.375833,0.84667 1.834444,0.84667 1.5875,0 1.199445,0.56444 -0.705555,0.9525 -1.023056,0.24694 -3.280834,1.02305 -4.974167,1.72861 -2.575278,1.12889 -2.963334,1.37583 -2.257778,1.55222 0.776111,0.17639 0.564444,0.38805 -1.975556,2.29305 -1.552222,1.16417 -4.268611,3.06917 -6.0325,4.233335 l -3.280834,2.11667 -0.917222,2.64583 c -1.446389,4.05694 -2.398889,6.10305 -4.056945,8.53722 -1.799167,2.68111 -2.293056,3.06917 -3.668889,3.10445 -0.776111,0 -0.917222,0.10583 -0.635,0.38805 0.564444,0.56445 3.139722,0.52917 3.81,-0.0353 0.3175,-0.28222 0.811389,-0.91722 1.093611,-1.48166 0.740834,-1.44639 1.552223,-1.30528 1.552223,0.3175 0,2.43416 -0.635,3.91583 -2.293056,5.29166 -1.622778,1.34056 -2.010834,2.2225 -1.058333,2.2225 1.552222,0 3.915833,-2.08138 5.08,-4.40972 0.388055,-0.77611 0.705555,-1.16417 0.740833,-0.84667 0,0.70556 -1.763889,3.42195 -2.963333,4.51556 -1.411112,1.30528 -1.164167,1.69333 1.058333,1.76389 1.869722,0.0353 2.046111,-0.0353 3.210278,-1.30528 0.670278,-0.70555 1.622778,-1.97555 2.081389,-2.75166 0.846667,-1.41112 0.881945,-1.69334 0.776111,-7.05556 -0.07056,-4.445 0,-5.78556 0.423334,-6.42056 0.635,-0.9525 3.951111,-2.71639 8.748889,-4.62139 6.843889,-2.75166 10.689167,-5.009435 13.511391,-8.043325 2.82222,-2.99861 2.96333,-3.45722 2.96333,-9.2075 v -5.044717 l 2.78695,-1.97556 c 2.68111,-1.905 2.78694,-1.94028 1.97555,-0.77611 l -0.81139,1.19944 1.12889,-1.05833 c 0.635,-0.59972 1.65806,-1.905 2.2225,-2.92805 0.56445,-0.98778 1.12889,-1.83445 1.19945,-1.83445 0.0706,0 0.0353,0.52917 -0.10584,1.12889 -0.35277,1.86972 0.24695,0.88194 1.12889,-1.905 0.45861,-1.41111 0.84667,-2.2225 0.88195,-1.79917 0.0353,1.79917 0.67028,0.98778 1.05833,-1.34055 0.3175,-1.79917 0.52917,-2.39889 0.77611,-2.04611 0.24695,0.35277 0.28222,0.0353 0.17639,-0.98778 -0.17639,-1.44639 -0.14111,-1.51695 0.67028,-1.30528 1.86972,0.45861 2.08139,0.38806 2.01083,-0.84667 -0.0706,-1.72861 0.49389,-1.02305 2.681115,3.175 2.8575,5.57389 3.42195,6.10306 1.97556,1.79917 -0.635,-1.97555 -1.37583,-3.95111 -1.5875,-4.40972 -0.42333,-0.77611 -0.42333,-0.77611 0.45861,0.0705 0.49389,0.49389 1.62278,2.2225 2.50472,3.84528 1.69334,3.06917 5.11528,7.58472 6.06778,7.9375 0.38806,0.14111 0.42333,0.0706 0.14111,-0.49389 -0.70555,-1.27 -0.35278,-1.19944 1.23472,0.35278 1.27,1.23472 1.5875,1.41111 1.5875,0.88195 0,-0.56445 0.24695,-0.42334 1.34056,0.635 0.84667,0.81138 1.55222,1.23472 1.905,1.12888 0.67028,-0.24694 3.13972,2.36362 4.16278,4.480277 0.9525,1.905 3.10444,4.16278 3.95111,4.16278 1.02306,0 0.74083,-1.19944 -0.45861,-2.08139 -1.44639,-1.05833 -1.34056,-2.36361 0.17639,-2.25778 2.64583,0.21167 4.19805,3.84528 2.68111,6.27945 -0.59972,0.9525 -0.70556,1.37583 -0.38806,1.69333 0.28222,0.28222 0.59972,0.17639 1.27,-0.45861 1.65806,-1.5875 1.94028,-4.40972 0.67028,-6.91444 -0.45861,-0.91723 -0.45861,-0.9525 0,-0.49389 0.98778,0.98778 1.48167,3.70416 0.98778,5.36222 -0.635,2.11667 -0.635,2.2225 -0.24695,2.36361 0.635,0.28222 1.5875,-1.55222 2.01084,-3.77472 0.45861,-2.43417 0.24694,-3.13972 -1.905,-6.526387 -0.91723,-1.44639 -1.30528,-1.72861 -3.06917,-2.2225 -1.5875,-0.45861 -2.36361,-0.98778 -3.91583,-2.57528 -2.78695,-2.89278 -5.3975,-6.0325 -4.97417,-6.0325 0.17639,0 0.45861,0.14111 0.56444,0.35278 0.10584,0.17639 0.42334,0.35278 0.63501,0.35278 0.56444,-0.0353 -1.30528,-1.5875 -5.04473,-4.30389 -4.16278,-3.03389 -6.20889,-4.7625 -7.09083,-5.99723 l -0.77611,-1.05833 1.55222,0.77611 1.55222,0.77611 -1.94028,-2.04611 c -1.05833,-1.12889 -2.08138,-2.18722 -2.29305,-2.32833 -0.17639,-0.14111 -0.24695,-0.3175 -0.14111,-0.45861 0.10583,-0.10584 0.635,0.17639 1.19944,0.59972 0.88195,0.67028 0.9525,0.70556 0.59972,0.0706 -0.56444,-1.09362 -4.72722,-4.83306 -6.13833,-5.60917 -1.552225,-0.81139 -1.622785,-0.9525 -0.56444,-1.41111 1.19944,-0.52917 2.39889,-3.175 2.39889,-5.22111 0,-1.62278 -0.0706,-1.72862 -0.77612,-1.55223 -0.45861,0.0706 -1.09361,0.28223 -1.48166,0.42334 -0.564455,0.24694 -0.599735,0.21166 -0.24695,-0.45861 0.24695,-0.42334 0.28222,-0.77612 0.10584,-0.77612 -0.14112,0 -0.776125,-0.70555 -1.375845,-1.51694 -0.59972,-0.84667 -2.08139,-2.29306 -3.31611,-3.24556 -1.23472,-0.91722 -2.68111,-2.15194 -3.21028,-2.75166 l -0.98777,-1.09361 v 0.9525 c 0,0.56444 -0.14112,0.91722 -0.3175,0.81139 -0.17639,-0.10584 -0.52917,0.0705 -0.77612,0.38805 -0.28222,0.3175 -1.94027,1.23472 -3.70416,2.04611 -1.76389,0.84667 -3.31611,1.69334 -3.45723,1.905 -0.14111,0.21167 -0.84666,0.38806 -1.5875,0.38806 -0.77611,0 -1.552218,0.21166 -1.799162,0.52916 -0.599723,0.70556 -0.3175,4.58612 0.423332,6.06778 0.81139,1.62278 0.14111,1.48167 -1.834444,-0.38805 -1.763889,-1.62278 -1.834444,-1.65806 -6.773333,-2.15195 -1.128889,-0.10583 -2.046112,-0.10583 -2.046112,0 0,0.10584 0.529167,0.38806 1.164167,0.67028 l 1.128889,0.49389 -1.940278,0.10583 c -4.938889,0.17639 -6.067778,-0.35278 -9.560278,-4.69194 -2.575278,-3.175 -3.316111,-3.73945 -2.257778,-1.69334 0.987778,1.905 0.423333,1.51695 -1.552222,-1.05833 -1.693334,-2.25778 -3.104445,-3.70417 -2.328334,-2.43417 0.176389,0.24695 -0.458611,-0.0705 -1.411111,-0.77611 -0.987778,-0.70555 -2.928056,-1.86972 -4.374445,-2.61055 -1.411111,-0.77611 -3.421944,-2.11667 -4.445,-3.03389 -2.963334,-2.75167 -6.455834,-3.70417 -9.666111,-2.68111 z"
       id="path9"
       style="stroke-width:0.0352778" /></g></svg>
