<?xml version="1.0" encoding="UTF-8" standalone="no"?>
<!-- Created with Inkscape (http://www.inkscape.org/) -->

<svg
   width="150mm"
   height="150mm"
   viewBox="0 0 150 150"
   version="1.1"
   id="svg1"
   inkscape:version="1.4 (e7c3feb1, 2024-10-09)"
   sodipodi:docname="arbre-4-dos.svg"
   xmlns:inkscape="http://www.inkscape.org/namespaces/inkscape"
   xmlns:sodipodi="http://sodipodi.sourceforge.net/DTD/sodipodi-0.dtd"
   xmlns="http://www.w3.org/2000/svg"
   xmlns:svg="http://www.w3.org/2000/svg">
  <sodipodi:namedview
     id="namedview1"
     pagecolor="#ffffff"
     bordercolor="#000000"
     borderopacity="0.25"
     inkscape:showpageshadow="2"
     inkscape:pageopacity="0.0"
     inkscape:pagecheckerboard="0"
     inkscape:deskcolor="#d1d1d1"
     inkscape:document-units="mm"
     inkscape:zoom="0.26205012"
     inkscape:cx="587.67383"
     inkscape:cy="459.8357"
     inkscape:window-width="1152"
     inkscape:window-height="688"
     inkscape:window-x="1920"
     inkscape:window-y="57"
     inkscape:window-maximized="0"
     inkscape:current-layer="layer1" />
  <defs
     id="defs1" />
  <g
     inkscape:label="Calque 1"
     inkscape:groupmode="layer"
     id="layer1">
    <path
       d="m 27.070144,21.210007 c 0.105833,1.305278 0.141111,1.340556 2.398889,1.940278 3.951111,1.093611 16.298334,3.774722 18.450279,4.021667 l 2.010833,0.246944 v -1.305278 c 0,-0.705555 -0.07056,-1.27 -0.141111,-1.27 -0.9525,0 -12.629445,-2.434166 -16.898057,-3.527778 -3.069167,-0.776111 -5.679722,-1.411111 -5.750278,-1.411111 -0.105833,0 -0.141111,0.599722 -0.07055,1.305278 z"
       id="path33"
       style="stroke-width:0.0352778" />
    <path
       d="m 115.7232,21.033618 c -2.11666,0.599722 -6.73805,1.658056 -10.23055,2.363611 -6.349997,1.305278 -6.349997,1.305278 -6.455837,2.328334 -0.0705,0.529167 0.0706,1.093611 0.28223,1.234722 0.21166,0.141111 2.046107,-0.03528 4.021657,-0.388055 4.23334,-0.776112 16.47473,-3.774723 16.89806,-4.162778 0.28222,-0.282223 -0.0706,-2.540001 -0.42333,-2.469445 -0.10584,0.03528 -1.94028,0.529167 -4.09223,1.093611 z"
       id="path34"
       style="stroke-width:0.0352778" />
    <path
       d="m 52.470145,23.608896 c -0.246944,0.493889 -0.423333,1.128889 -0.423333,1.411111 0,0.917223 -0.635,0.564445 -0.846667,-0.458611 -0.07055,-0.529167 -0.105833,0.987778 -0.03528,3.386667 0.141111,3.81 0,5.150556 -1.093611,10.936112 -0.670278,3.633611 -1.305278,7.902223 -1.446389,9.489723 -0.176389,2.575278 -0.141111,2.998611 0.564445,4.1275 1.164166,1.834444 6.35,5.609167 10.830278,7.831667 l 3.951113,1.940278 0.24694,3.245556 c 0.45862,6.0325 1.76389,10.936112 4.65667,17.462502 l 1.5875,3.59833 -2.78694,2.92806 c -3.77473,3.91583 -6.45584,7.76111 -6.45584,9.24278 0,1.234722 2.15195,4.656659 6.45584,10.336389 1.41111,1.79916 2.68111,3.52777 2.89278,3.77472 0.24694,0.35278 -0.17639,0.98778 -1.51695,2.43417 -1.12889,1.19944 -1.83444,2.25777 -1.83444,2.75166 v 0.81139 l 0.74083,-0.88194 c 0.59972,-0.70556 0.70556,-0.74084 0.49389,-0.17639 -0.49389,1.48166 -0.59972,2.92805 -0.21167,3.56305 0.3175,0.59973 0.35278,0.52917 0.38806,-0.45861 0,-1.30528 0.3175,-2.2225 0.74083,-2.2225 0.17639,0 0.21167,0.45861 0.10583,1.02306 -0.14111,0.59972 0,1.41111 0.35278,2.01083 l 0.52917,1.02306 0.0353,-1.83445 c 0,-0.98778 0.17639,-1.94028 0.35277,-2.04611 0.21167,-0.14111 0.35278,0.28222 0.35278,0.9525 0,0.67028 0.24695,1.51695 0.52917,1.905 0.52917,0.635 0.52917,0.59972 0.49389,-0.56444 -0.0706,-1.97556 0,-2.2225 0.77611,-3.4925 l 0.74083,-1.23473 0.67028,0.88195 0.67028,0.84667 v -1.16417 c 0,-1.23472 -3.175,-8.74889 -6.0325,-14.14639 -0.9525,-1.83445 -1.72861,-3.421947 -1.72861,-3.563057 0,-0.14111 0.9525,-0.846662 2.15194,-1.587502 1.16417,-0.70555 3.06917,-2.08139 4.19806,-3.03389 1.16416,-0.9525 2.2225,-1.72861 2.39889,-1.72861 0.17638,0 0.49388,0.81139 0.70555,1.79917 0.59972,2.57528 2.39889,6.667499 4.02167,9.207499 0.77611,1.23472 3.73944,5.18583 6.52639,8.85472 5.67972,7.40834 6.38528,8.60778 5.715,10.19528 -0.52917,1.30528 -1.30528,1.69333 -3.21028,1.69333 -1.16417,0 -1.83444,-0.24694 -2.75167,-0.98777 -1.65805,-1.34056 -2.25777,-1.51695 -3.13972,-0.91723 -1.09361,0.77612 -0.91722,1.65806 0.635,3.06917 1.5875,1.44639 4.26861,2.15195 6.63222,1.79917 4.19806,-0.635 6.17361,-4.51556 4.33917,-8.5725 -0.38806,-0.84667 -2.82222,-4.26861 -5.43278,-7.58472 -5.22111,-6.73806 -7.12611,-9.41917 -8.39611,-12.029727 -0.98778,-1.940282 -1.94028,-4.797782 -2.11667,-6.173612 -0.14111,-1.12889 -0.35277,-1.16417 7.83167,1.30528 l 6.56167,1.94028 1.83444,6.385269 c 1.97556,6.91445 3.10445,10.86556 3.668892,13.12334 l 0.38806,1.41111 0.317497,-0.98778 c 0.17639,-0.52916 0.49389,-0.9525 0.70555,-0.9525 0.67028,0 2.39889,2.08139 2.39889,2.89278 0,0.45861 0.14111,1.02306 0.3175,1.27 0.42334,0.70556 0.81139,-1.05833 0.52917,-2.29306 -0.21167,-0.84666 -0.17639,-0.91722 0.28222,-0.52916 0.3175,0.24694 0.67028,0.9525 0.84667,1.5875 l 0.28222,1.12889 0.14111,-1.37584 c 0.0706,-0.74083 -0.0353,-1.51694 -0.24694,-1.72861 -0.81139,-0.81139 -0.35278,-1.02305 0.49389,-0.24694 0.49388,0.45861 0.88194,1.16416 0.88194,1.55222 0,0.56444 0.0706,0.635 0.45861,0.24694 0.35278,-0.35277 0.24695,-0.77611 -0.52917,-2.18722 -1.02305,-1.79916 -0.98777,-2.15194 0.14112,-1.12889 1.09361,0.98778 0.70555,-0.14111 -0.45862,-1.27 -0.70555,-0.70555 -1.83444,-1.30527 -3.175,-1.69333 -1.69333,-0.45861 -2.08138,-0.70556 -2.08138,-1.30528 0,-1.02305 -1.02306,-12.382499 -1.270007,-14.428609 -0.14111,-1.02306 -0.56444,-2.11667 -1.058332,-2.68111 -1.34055,-1.5875 -5.99722,-4.62139 -10.90083,-7.09084 l -4.58611,-2.29305 v -3.88056 c 0.0353,-4.339164 0.49389,-14.746109 0.74083,-15.945553 0.10583,-0.529167 1.12889,-1.270001 3.56306,-2.610556 4.65666,-2.469445 6.94972,-4.092223 9.38388,-6.596945 1.37584,-1.411111 2.151952,-2.504722 2.363622,-3.386667 0.3175,-1.411111 -0.0353,-6.632223 -0.917232,-13.970001 -0.38805,-3.316111 -0.49389,-5.997222 -0.35277,-8.819445 0.14111,-2.469444 0.0705,-4.268611 -0.14112,-4.586111 -0.28222,-0.423334 -0.35277,-0.282222 -0.38805,0.529167 0,1.023055 -0.0353,1.023055 -0.77611,-0.529167 l -0.74084,-1.5875 -0.14111,1.5875 -0.14111,1.5875 -0.56444,-1.199445 c -1.02306,-2.046111 -1.30528,-1.658055 -1.27,1.658056 0.0353,2.046111 0.24694,3.563056 0.635,4.515556 0.59972,1.411111 0.56444,1.693333 -0.45861,9.066389 -0.59973,4.198056 -1.09361,8.149168 -1.09361,8.784168 0,1.5875 -0.24695,1.834444 -2.43417,2.54 -1.05833,0.352778 -3.4925,1.305278 -5.3975,2.151944 l -3.4925,1.552223 0.24694,-1.128889 c 0.10584,-0.635 0.3175,-1.164167 0.45861,-1.234723 1.16417,-0.458611 2.57528,-1.658055 2.89278,-2.398889 0.52917,-1.481666 -0.42333,-2.716389 -2.01083,-2.54 -1.02306,0.105834 -1.44639,-0.07055 -2.64584,-1.199444 -1.69333,-1.622778 -4.62138,-2.575278 -6.91444,-2.257778 -2.15194,0.282222 -4.7625,1.481666 -5.92667,2.681111 -0.77611,0.811389 -1.19944,0.987778 -2.01083,0.811389 -1.19945,-0.246945 -2.39889,0.670278 -2.39889,1.834445 0,0.776111 1.02306,1.905 2.32833,2.575277 0.42334,0.211667 0.84667,0.811389 0.91723,1.305278 0.10583,0.493889 0.14111,0.881945 0.10583,0.881945 -0.0706,0 -1.51695,-0.529167 -3.21028,-1.199445 -1.72861,-0.670278 -4.092223,-1.481666 -5.25639,-1.834444 -1.164166,-0.352778 -2.2225,-0.705556 -2.363611,-0.811389 -0.141111,-0.105834 -0.388056,-2.8575 -0.599722,-6.067778 -0.211667,-3.210278 -0.564445,-7.302501 -0.776111,-9.06639 -0.388056,-2.786944 -0.352778,-3.386667 0.141111,-4.727222 0.599722,-1.5875 0.705555,-7.337779 0.141111,-7.337779 -0.141111,0 -0.529167,0.564445 -0.811389,1.234723 -0.670278,1.622778 -0.9525,1.552222 -0.776111,-0.176389 0.141111,-1.622778 -0.141111,-1.799167 -0.705556,-0.529167 z"
       id="path37"
       style="stroke-width:0.0352778" />
    <path
       d="m 56.84459,26.431119 c -0.529167,1.446388 -0.246945,1.834444 1.481667,2.081389 3.880554,0.493888 21.554724,0.670277 27.340284,0.246944 3.28083,-0.246944 6.13833,-0.493889 6.42055,-0.599722 0.35278,-0.141111 0.38806,-0.423334 0.10583,-1.234723 l -0.35277,-1.058333 -7.12611,0.282222 c -8.89001,0.352778 -13.54667,0.352778 -21.41362,0 -5.573887,-0.246944 -6.244164,-0.211666 -6.455831,0.282223 z"
       id="path40"
       style="stroke-width:0.0352778" />
  </g>
</svg>
