<?xml version="1.0" encoding="UTF-8" standalone="no"?>
<!-- Created with Inkscape (http://www.inkscape.org/) -->

<svg
   width="150mm"
   height="150mm"
   viewBox="0 0 150 150"
   version="1.1"
   id="svg1"
   inkscape:version="1.4 (e7c3feb1, 2024-10-09)"
   sodipodi:docname="arbre-5-dos.svg"
   xmlns:inkscape="http://www.inkscape.org/namespaces/inkscape"
   xmlns:sodipodi="http://sodipodi.sourceforge.net/DTD/sodipodi-0.dtd"
   xmlns="http://www.w3.org/2000/svg"
   xmlns:svg="http://www.w3.org/2000/svg">
  <sodipodi:namedview
     id="namedview1"
     pagecolor="#ffffff"
     bordercolor="#000000"
     borderopacity="0.25"
     inkscape:showpageshadow="2"
     inkscape:pageopacity="0.0"
     inkscape:pagecheckerboard="0"
     inkscape:deskcolor="#d1d1d1"
     inkscape:document-units="mm"
     inkscape:zoom="0.52410024"
     inkscape:cx="415.95096"
     inkscape:cy="239.45801"
     inkscape:window-width="1152"
     inkscape:window-height="688"
     inkscape:window-x="1920"
     inkscape:window-y="57"
     inkscape:window-maximized="0"
     inkscape:current-layer="layer1" />
  <defs
     id="defs1" />
  <g
     inkscape:label="Calque 1"
     inkscape:groupmode="layer"
     id="layer1">
    <path
       d="m 12.803522,21.509019 c 0,1.023056 0.03528,1.058334 1.763889,1.058334 7.3025,0 23.706668,2.716389 34.501669,5.679722 l 3.951111,1.093611 v 2.187223 c 0,1.199444 -0.211666,4.056944 -0.493889,6.385278 -0.811389,6.738056 -1.023055,11.535834 -0.599722,13.123334 0.3175,1.128889 1.164167,2.187222 4.056945,4.938889 2.786944,2.681112 6.985,6.103056 8.5725,6.985001 0.07056,0.03528 0.423334,2.328333 0.811389,5.150556 1.305278,8.960556 2.751667,13.581945 5.609167,17.744723 0.599722,0.846667 1.093611,1.834444 1.093611,2.116667 0,0.3175 -1.516944,3.563055 -3.421944,7.267222 l -3.386667,6.667501 1.093611,2.2225 c 1.411111,2.82222 5.468056,8.255 8.431389,11.28889 l 2.328334,2.32833 -1.305278,1.51695 c -1.728611,2.04611 -3.104445,4.93889 -2.963333,6.20889 l 0.141111,0.98778 0.670278,-1.34056 c 0.811388,-1.62278 1.305277,-1.69333 0.846666,-0.17639 -0.388055,1.44639 -0.423333,4.16278 0,4.16278 0.141111,0 0.282222,-0.59972 0.282222,-1.34056 0,-0.70555 0.246945,-1.86972 0.529167,-2.54 l 0.529167,-1.23472 0.03528,2.01083 c 0,1.12889 0.105833,2.18723 0.246944,2.39889 0.529167,0.84667 0.776111,0.24695 0.635,-1.48166 l -0.176389,-1.86973 0.776111,1.19945 c 0.881945,1.41111 1.27,1.23472 0.740834,-0.38806 -0.423334,-1.30527 -0.282222,-2.01083 1.164167,-5.3975 0.493888,-1.16416 0.917222,-2.64583 0.917222,-3.28083 0,-0.77611 -1.128889,-3.38667 -3.527778,-8.07861 l -3.527778,-6.94973 1.128889,-1.83444 c 2.187222,-3.668889 7.126111,-9.736668 8.501945,-10.477501 1.164166,-0.670278 1.375833,-0.670278 1.658055,-0.246944 0.599723,0.9525 0.352778,5.009444 -0.564444,9.877778 -1.199445,6.385277 -1.27,11.641667 -0.141111,14.640277 1.023055,2.71639 3.704168,5.46806 6.173608,6.27945 2.29306,0.81139 5.60917,0.77611 7.40834,-0.0706 5.32694,-2.46944 6.13833,-10.33639 1.48166,-14.32278 -2.68111,-2.29305 -6.10305,-2.32833 -7.79639,-0.0706 -1.34055,1.79917 -0.45861,5.18583 1.34056,5.18583 1.30528,0 1.83444,-0.88194 1.34055,-2.18722 -0.49389,-1.30528 -0.3175,-1.69333 0.74084,-1.69333 1.30528,0 2.92805,1.27 3.73944,2.89278 2.25778,4.69195 -1.34055,9.03112 -6.35,7.69056 -2.15194,-0.56444 -3.4925,-1.69333 -4.69194,-3.88056 -1.587501,-2.89277 -1.622779,-6.10306 -0.21167,-13.75834 1.12889,-6.103052 1.23472,-8.99583 0.49389,-12.064997 -0.17639,-0.811389 -0.0353,-1.058334 1.30528,-1.905 0.84666,-0.493889 3.03389,-2.434167 4.90361,-4.233334 l 3.42194,-3.316111 1.37584,1.164167 c 2.8575,2.434166 8.85472,6.808611 10.30111,7.549444 1.41111,0.705556 1.62278,0.740834 3.10444,0.282223 0.88195,-0.246945 1.97556,-0.740834 2.46945,-1.058334 1.86972,-1.199444 3.42194,-1.552222 4.72722,-1.023055 1.48167,0.635 1.69333,0.423333 0.56444,-0.493889 -0.52916,-0.388056 -0.91722,-0.811389 -0.91722,-0.9525 0,-0.282223 1.48167,-0.07056 2.64584,0.3175 0.59972,0.211666 0.56444,0.141111 -0.17639,-0.493889 -0.67028,-0.599722 -1.19945,-0.740834 -2.36361,-0.635 -1.34056,0.105833 -1.44639,0.03528 -0.91723,-0.352778 1.02306,-0.740833 2.18723,-0.881945 3.175,-0.458611 1.02306,0.458611 1.51695,0.246944 0.84667,-0.423334 -0.24694,-0.246944 -1.27,-0.423333 -2.36361,-0.388055 -1.02306,0 -1.905,-0.03528 -1.905,-0.105833 0,-0.03528 0.67028,-0.458612 1.51694,-0.881945 1.05834,-0.564444 1.30528,-0.811389 0.84667,-0.917222 -1.41111,-0.3175 -4.72722,1.340555 -7.26722,3.633611 l -1.37584,1.234722 -2.57527,-3.069166 c -4.1275,-5.009445 -8.53723,-9.70139 -9.66612,-10.406946 -0.56444,-0.352777 -1.48166,-0.635 -2.01083,-0.635 -0.9525,0 -4.97417,2.504723 -8.50194,5.326945 l -1.728614,1.340556 -1.128889,-1.658056 c -0.635,-0.917222 -2.363611,-3.457222 -3.880555,-5.644445 -1.516945,-2.187222 -3.033889,-4.797778 -3.421945,-5.820833 l -0.670278,-1.834445 1.516945,-1.234722 c 0.811389,-0.670278 3.175,-2.892778 5.291667,-4.903612 2.963329,-2.892778 3.880549,-4.021667 4.162779,-5.150556 0.45861,-1.658055 0.17639,-8.5725 -0.59973,-14.428612 -0.28222,-2.151944 -0.49388,-4.550833 -0.49388,-5.3975 0,-1.763889 0.10583,-1.834444 4.7625,-2.928056 5.85611,-1.375833 27.94,-4.621389 36.33611,-5.3975 4.30389,-0.388056 4.93889,-0.529167 5.04472,-1.093611 0.24695,-1.234722 -0.38805,-1.340556 -5.96194,-0.740834 -11.00667,1.128889 -32.52612,4.445001 -37.71195,5.820834 -1.44639,0.352778 -2.78694,0.529167 -2.99861,0.388056 -0.599721,-0.493889 -2.257777,-0.776111 -3.174999,-0.529167 -0.599723,0.141111 -0.9525,0.564445 -1.164167,1.340556 -0.246945,0.987778 -0.564445,1.164166 -2.751667,1.905 -6.103056,1.975556 -10.830278,2.187222 -17.074445,0.740833 -4.233334,-0.9525 -4.833056,-1.234722 -5.080001,-2.469444 -0.282222,-1.481667 -1.516944,-1.940278 -3.457222,-1.305278 -1.305278,0.458611 -1.728611,0.458611 -2.928056,0.03528 -2.822224,-0.952468 -12.805836,-3.280801 -17.99167,-4.127468 -4.656667,-0.776111 -9.8425,-1.375833 -18.238612,-2.151944 l -2.398889,-0.211667 z m 49.036114,10.830279 c 2.398889,0.635 4.550834,0.9525 7.584723,1.058333 3.915833,0.141111 4.550834,0.07056 8.466667,-0.9525 6.208889,-1.658056 5.750278,-1.622778 6.208889,-0.493889 0.564445,1.375833 0.458612,5.538612 -0.246944,12.24139 l -0.635,5.573889 -1.763889,1.622778 c -2.010834,1.834444 -4.903612,3.739445 -6.208889,4.162778 -0.846667,0.246944 -0.846667,0.246944 -0.3175,-0.564445 0.3175,-0.458611 0.917222,-1.023055 1.340555,-1.234722 2.081389,-1.058333 2.928056,-2.822222 1.975556,-4.233333 -0.282222,-0.458612 -0.881945,-0.846667 -1.340556,-0.846667 -0.529166,0 -0.9525,-0.388056 -1.305278,-1.164167 -0.3175,-0.705556 -1.128889,-1.446389 -2.187222,-2.010833 -0.881944,-0.493889 -1.940278,-1.164167 -2.328333,-1.516945 -0.599723,-0.564444 -0.705556,-0.564444 -1.128889,-0.07056 -0.246945,0.317501 -1.305278,0.952501 -2.293056,1.411112 -1.234722,0.599722 -2.046111,1.27 -2.469445,2.081389 -0.423333,0.811389 -0.987778,1.27 -1.658055,1.411111 -1.093612,0.211667 -1.834445,1.516944 -1.446389,2.575278 0.3175,0.987778 1.5875,2.2225 2.2225,2.2225 0.493889,0 1.763889,1.658056 1.763889,2.293056 0,0.635 -6.84389,-4.092223 -8.11389,-5.644445 -0.529166,-0.635 -1.728611,-10.512779 -1.763889,-14.393334 0,-3.139723 0.705556,-5.044723 1.693334,-4.656667 0.3175,0.105833 2.116667,0.635 3.951111,1.128889 z"
       id="path31"
       style="stroke-width:0.0352778" />
  </g>
</svg>
