<?xml version="1.0" encoding="UTF-8" standalone="no"?>
<!-- Created with Inkscape (http://www.inkscape.org/) -->

<svg
   width="150mm"
   height="150mm"
   viewBox="0 0 150 150"
   version="1.1"
   id="svg1"
   inkscape:version="1.4 (e7c3feb1, 2024-10-09)"
   sodipodi:docname="arbre-3-D.svg"
   xmlns:inkscape="http://www.inkscape.org/namespaces/inkscape"
   xmlns:sodipodi="http://sodipodi.sourceforge.net/DTD/sodipodi-0.dtd"
   xmlns="http://www.w3.org/2000/svg"
   xmlns:svg="http://www.w3.org/2000/svg">
  <sodipodi:namedview
     id="namedview1"
     pagecolor="#ffffff"
     bordercolor="#000000"
     borderopacity="0.25"
     inkscape:showpageshadow="2"
     inkscape:pageopacity="0.0"
     inkscape:pagecheckerboard="0"
     inkscape:deskcolor="#d1d1d1"
     inkscape:document-units="mm"
     inkscape:zoom="0.26205012"
     inkscape:cx="435.03128"
     inkscape:cy="555.23729"
     inkscape:window-width="1152"
     inkscape:window-height="688"
     inkscape:window-x="1920"
     inkscape:window-y="57"
     inkscape:window-maximized="0"
     inkscape:current-layer="layer1" />
  <defs
     id="defs1" />
  <g
     inkscape:label="Calque 1"
     inkscape:groupmode="layer"
     id="layer1">
    <path
       d="m 106.57516,19.110177 c 0.38805,1.058334 -0.3175,1.516945 -4.65667,2.892778 -8.643056,2.786945 -13.899448,3.915834 -21.942778,4.833056 -2.78695,0.282222 -5.11528,0.599722 -5.15056,0.635 -0.0353,0.03528 -0.49389,1.058334 -0.98777,2.257778 -0.635,1.516945 -0.91723,2.8575 -0.91723,4.233334 0,1.093611 -0.3175,4.727222 -0.74083,8.078611 l -0.74083,6.032501 0.77611,1.481666 c 1.37583,2.716389 3.10444,5.115279 4.86833,6.879168 1.62278,1.552222 1.79917,1.658055 2.11667,1.058333 0.17639,-0.388056 0.45861,-1.481667 0.59972,-2.469445 0.49389,-3.668889 2.78694,-5.856111 6.38528,-6.067778 3.880554,-0.246944 5.785554,1.128889 5.785554,4.198056 0,1.516945 0.141111,1.799167 1.446389,3.069167 1.199444,1.128889 1.446389,1.5875 1.446389,2.716389 0,1.093611 -0.211667,1.5875 -1.093611,2.363611 -0.599722,0.529167 -1.411111,0.987778 -1.763889,0.987778 -1.940278,0 -2.469442,1.411111 -0.846667,2.257778 1.340556,0.705556 3.139722,2.645833 3.633611,3.915834 0.211667,0.564444 0.529167,2.963334 0.670278,5.256384 0.246945,3.98639 0.3175,4.23334 1.234723,5.04473 1.128888,0.9525 1.27,0.9525 6.596941,0.28222 2.25778,-0.28222 4.48028,-0.38806 4.97417,-0.24694 0.49389,0.14111 1.97556,1.23472 3.28083,2.43416 l 2.36361,2.18722 -0.21166,2.04612 c -0.14111,1.12888 -0.52917,2.43416 -0.84667,2.89277 -0.74083,0.98778 -2.18722,1.37584 -2.18722,0.56445 0,-0.28222 -0.17639,-0.52917 -0.42333,-0.52917 -0.21167,0 -0.14112,-0.24694 0.17638,-0.635 1.16417,-1.27 0.77612,-2.36361 -1.41111,-3.91583 l -1.97555,-1.41111 -1.97556,1.02305 c -3.24555,1.62278 -6.526387,2.46945 -9.560276,2.46945 -2.928056,0 -4.021667,-0.21167 -3.668889,-0.74084 0.105833,-0.17639 -0.03528,-0.3175 -0.282222,-0.3175 -0.352778,0 -0.740834,-1.27 -1.305278,-4.16277 -0.458613,-2.25778 -0.917223,-4.40973 -1.058333,-4.76251 -0.17639,-0.45861 -0.9525,0.49389 -3.31611,4.05695 -1.69334,2.57528 -4.09222,5.85611 -5.36222,7.26722 l -2.29306,2.57528 v 6.94972 c 0,3.810004 -0.17639,8.360844 -0.35278,10.089454 l -0.3175,3.175 -3.10444,3.13972 c -3.95111,3.98639 -8.11389,7.33778 -10.93611,8.81945 -1.23473,0.59972 -2.2225,1.34055 -2.2225,1.62277 0,0.9525 -2.75167,6.20889 -3.95112,7.58473 -1.09361,1.27 -1.37583,1.41111 -3.21027,1.51694 -2.11667,0.10583 -2.57528,-0.21167 -1.23473,-0.88194 0.74084,-0.35278 0.74084,-0.38806 0.10584,-0.3175 -1.16417,0.10583 -1.12889,-0.52917 0.0705,-0.9525 1.41111,-0.49389 1.905,-0.9525 0.81139,-0.84667 -1.09361,0.14111 -1.30528,-0.635 -0.24694,-0.91722 1.30527,-0.3175 3.13972,-2.57528 2.99861,-3.66889 -0.10583,-0.81139 -0.28222,-0.9525 -1.23472,-0.9525 -1.65806,0 -1.51695,-0.56445 0.49389,-1.76389 2.15194,-1.27 4.02166,-3.06917 10.23055,-9.70139 l 4.79778,-5.11528 -0.24695,-2.64583 c -0.21166,-2.78695 -0.88194,-6.279454 -1.79916,-9.419174 -0.52917,-1.83444 -0.56445,-1.86972 -1.94028,-1.86972 -0.74083,0 -3.45722,-0.35278 -6.0325,-0.74084 -2.57528,-0.42333 -4.72722,-0.635 -4.79778,-0.45861 -0.38805,1.09361 -3.45722,8.290284 -4.83305,11.253624 -1.41112,3.10444 -1.905,3.77472 -4.09223,5.715 -1.37583,1.23472 -2.61055,2.2225 -2.71639,2.2225 -0.10583,0 -0.10583,-0.635 0.0353,-1.41112 0.21167,-1.37583 0.17639,-1.41111 -0.74083,-1.41111 -1.41111,0 -3.10445,1.16417 -4.16278,2.82223 -1.05833,1.69333 -1.37583,1.76388 -1.16417,0.35277 0.21167,-1.34055 0.0706,-1.34055 -0.635,0.0353 -0.35277,0.74083 -0.67027,0.98778 -0.91722,0.74083 -0.21167,-0.21166 -0.14111,-0.74083 0.24695,-1.51694 l 0.59972,-1.19944 -1.12889,1.05833 c -1.16417,1.05833 -1.16417,1.05833 -0.91722,0.17639 0.14111,-0.49389 0.3175,-1.34056 0.35277,-1.905 0.17639,-1.69334 3.10445,-3.35139 7.44362,-4.26861 1.55222,-0.3175 2.82222,-0.59973 2.8575,-0.635 0,-0.0353 0.21166,-1.34056 0.42333,-2.89278 0.42333,-3.104454 1.905,-7.972784 3.52778,-11.571114 0.98778,-2.15195 1.86972,-3.06917 3.77472,-3.91584 0.17639,-0.10583 0.0353,-0.35277 -0.35278,-0.59972 -0.38805,-0.21167 -1.51694,-1.27 -2.54,-2.32833 -2.46944,-2.57528 -3.28083,-4.7625 -3.28083,-8.96056 0,-4.1275 0.635,-6.49111 3.24555,-12.135555 4.12751,-8.995834 4.97417,-12.417778 3.63362,-14.993056 -1.34056,-2.575278 -5.11528,-2.293056 -5.11528,0.388055 0,1.340556 -0.9525,2.434167 -2.08139,2.434167 -2.78695,0 -2.89278,-4.550834 -0.17639,-7.126112 1.34056,-1.27 2.61056,-1.693333 4.90361,-1.693333 2.57528,0 4.86834,1.552222 6.24417,4.198056 0.81139,1.552222 0.98778,2.328333 0.98778,4.515556 0,3.139722 -0.84667,5.926667 -3.73945,12.206112 -3.70417,8.00806 -4.51555,11.43 -3.52778,14.74611 1.05834,3.66889 4.02167,5.96195 7.72584,5.96195 3.10444,0 4.69194,-1.05834 6.6675,-4.40973 3.21028,-5.43277 4.86833,-10.124719 4.86833,-13.899441 0,-2.116667 -0.14111,-2.504723 -2.11667,-6.067779 -3.13972,-5.644444 -4.58611,-8.819445 -4.58611,-10.054167 0,-1.728611 1.34056,-8.078611 2.54,-11.959167 1.86973,-6.138334 1.83445,-6.032501 1.48167,-7.47889 l -0.3175,-1.340555 -5.08,-0.423334 c -9.03111,-0.740833 -15.09889,-1.940278 -23.91833,-4.7625 -5.53862,-1.763889 -6.42056,-2.257778 -5.82084,-3.280833 0.21167,-0.388056 1.09361,-0.211667 4.48028,0.917222 8.78417,2.8575 17.99167,4.7625 25.29417,5.150556 3.95111,0.211666 4.16278,0.176389 4.7625,-0.529167 0.45861,-0.529167 1.19944,-0.846667 2.57528,-0.987778 1.79916,-0.211667 2.08139,-0.141111 3.10444,0.740833 1.12889,0.952501 1.23472,0.987778 4.23333,0.740834 8.11389,-0.670278 14.640283,-2.151945 27.834168,-6.385278 0.21167,-0.07056 0.49389,0.105833 0.59973,0.388055 z M 88.265992,51.036568 c -1.83445,0.458611 -3.35139,1.728611 -3.35139,2.786945 0,0.388055 0.635,1.411111 1.41111,2.257778 0.77611,0.846666 1.41111,1.834444 1.41111,2.257778 0,0.9525 1.83444,2.469444 3.386667,2.751666 0.917223,0.176389 1.411111,0.07056 1.905,-0.388055 0.987778,-0.881945 0.881945,-1.234722 -0.458611,-1.27 l -1.128889,-0.07056 1.234723,-0.211666 c 1.763889,-0.3175 1.799166,-1.199445 0.03528,-2.998612 -1.164166,-1.164166 -1.446389,-1.763889 -1.5875,-3.104444 -0.211666,-2.575278 -0.3175,-2.645834 -2.8575,-2.010834 z m -6.31473,3.457223 c -0.52916,0.564444 -0.56444,0.811389 -0.17638,1.516944 0.49388,0.917222 0.98777,1.340556 1.65805,1.340556 0.3175,0 0.38806,-0.352778 0.24695,-1.340556 -0.42334,-2.469444 -0.67028,-2.681111 -1.72862,-1.516944 z"
       id="path30"
       style="stroke-width:0.0352778" />
  </g>
</svg>
