<?xml version="1.0" encoding="UTF-8" standalone="no"?>
<!-- Created with Inkscape (http://www.inkscape.org/) -->

<svg
   width="150mm"
   height="150mm"
   viewBox="0 0 150 150"
   version="1.1"
   id="svg1"
   inkscape:version="1.4 (e7c3feb1, 2024-10-09)"
   sodipodi:docname="monkey-3.svg"
   xmlns:inkscape="http://www.inkscape.org/namespaces/inkscape"
   xmlns:sodipodi="http://sodipodi.sourceforge.net/DTD/sodipodi-0.dtd"
   xmlns="http://www.w3.org/2000/svg"
   xmlns:svg="http://www.w3.org/2000/svg">
  <sodipodi:namedview
     id="namedview1"
     pagecolor="#ffffff"
     bordercolor="#000000"
     borderopacity="0.25"
     inkscape:showpageshadow="2"
     inkscape:pageopacity="0.0"
     inkscape:pagecheckerboard="0"
     inkscape:deskcolor="#d1d1d1"
     inkscape:document-units="mm"
     inkscape:zoom="0.74118967"
     inkscape:cx="388.56451"
     inkscape:cy="294.79634"
     inkscape:window-width="1152"
     inkscape:window-height="688"
     inkscape:window-x="1920"
     inkscape:window-y="57"
     inkscape:window-maximized="0"
     inkscape:current-layer="layer1" />
  <defs
     id="defs1" />
  <g
     inkscape:label="Calque 1"
     inkscape:groupmode="layer"
     id="layer1">
    <path
       d="m 40.742057,19.525569 c -0.105833,0.211667 -0.529167,0.388055 -0.881944,0.388055 -0.352778,0 -0.881945,0.3175 -1.164167,0.705556 -0.458611,0.670278 -0.9525,0.705556 -9.454445,0.776111 l -8.960556,0.105834 v 1.058333 1.058333 l 9.948334,0.176389 9.913056,0.176389 0.705555,0.917222 c 0.423334,0.529167 1.446389,3.66889 2.504723,7.831668 1.799167,6.949722 3.563056,11.606389 5.08,13.229167 1.128889,1.234722 8.501945,6.138334 11.394723,7.549445 1.340556,0.705556 3.245556,1.516945 4.233334,1.834445 l 1.834444,0.599722 0.740834,2.716389 c 0.917222,3.316111 2.046111,9.489723 2.434166,13.440834 l 0.282223,2.963334 -2.822223,4.621389 c -4.303889,6.985 -4.797778,7.866945 -4.797778,8.678334 0,1.093611 2.187223,5.115278 5.185834,9.666111 1.411111,2.081391 2.575278,3.880561 2.575278,3.951111 0,0.0706 -0.282222,0.14111 -0.599722,0.14111 -1.481667,0 -6.103056,3.88056 -6.103056,5.08 0,0.38806 0.352777,0.21167 1.093611,-0.56444 l 1.093611,-1.16417 -0.740833,1.27 c -0.740834,1.30528 -1.023056,3.70417 -0.388056,3.31611 0.211667,-0.10583 0.352778,-0.59972 0.352778,-1.05833 0,-0.45861 0.388055,-1.30528 0.846667,-1.83444 l 0.846666,-0.98778 -0.493889,1.94028 c -0.3175,1.27 -0.388055,2.01083 -0.141111,2.25777 0.246945,0.24695 0.352778,0.10584 0.352778,-0.35277 0,-0.35278 0.352778,-1.37584 0.776111,-2.25778 l 0.740834,-1.5875 0.211666,1.05833 0.211667,1.02306 0.670278,-1.44639 c 0.388055,-0.91722 1.023055,-1.62278 1.658055,-1.86972 0.881945,-0.38806 1.058334,-0.3175 2.010834,0.77611 1.199444,1.30528 1.763889,1.16416 1.164167,-0.3175 -0.282223,-0.74084 -0.282223,-1.48167 0.105833,-2.99861 0.458611,-2.01084 0.458611,-2.08139 -0.670278,-4.762506 -0.635,-1.516945 -1.728611,-4.021667 -2.434167,-5.538612 -1.234722,-2.681111 -1.27,-2.822222 -0.705555,-3.704167 0.917222,-1.411111 7.902219,-8.149167 8.431389,-8.149167 0.28222,0 0.59972,0.564445 0.74083,1.305278 0.10584,0.740833 0.67028,3.704167 1.19945,6.632223 2.78694,14.746111 3.35139,25.223611 1.72861,31.326671 -1.12889,4.30389 -4.19806,6.6675 -6.561668,5.00944 -0.9525,-0.67027 -1.375833,-2.46944 -0.776111,-3.21027 0.246944,-0.28223 0.9525,-0.74084 1.622778,-1.02306 0.9525,-0.38806 1.164167,-0.70556 1.164167,-1.51694 0,-2.11667 -2.434167,-2.68112 -4.233334,-0.9525 -2.116667,2.01083 -2.257778,5.89139 -0.3175,8.11389 3.033889,3.45722 8.290278,2.04611 10.759718,-2.92806 1.62278,-3.21028 1.97556,-5.715 1.97556,-13.12333 0,-7.02028 -0.35278,-10.265842 -2.39889,-22.366119 -0.67028,-4.056945 -1.16417,-7.514167 -1.09361,-7.725834 0.14111,-0.493889 3.24556,-0.352778 9.2075,0.458611 l 4.86833,0.635 4.02167,4.233334 c 3.316114,3.4925 4.445004,4.445 6.314724,5.326945 1.30528,0.635 2.64584,1.5875 3.24556,2.328333 0.52917,0.670278 1.09361,1.234722 1.27,1.234722 0.38806,0 0.3175,-1.693333 -0.10583,-2.469444 -0.3175,-0.599722 -0.21167,-0.740834 0.59972,-0.917222 0.52917,-0.141112 1.65805,-0.07056 2.50472,0.176388 1.86972,0.493889 2.29306,0.282223 0.88195,-0.458611 -1.76389,-0.9525 0.24694,-0.670278 2.18722,0.3175 0.9525,0.458611 1.79916,0.811389 1.86972,0.705556 0.3175,-0.282222 -0.42333,-0.917222 -1.97556,-1.763889 -1.27,-0.635 -1.48166,-0.846667 -0.84666,-0.881945 0.42333,0 1.37583,0.246945 2.08139,0.529167 0.70555,0.282222 1.34055,0.493889 1.41111,0.423333 0.3175,-0.352777 -1.37584,-1.375833 -2.75167,-1.658055 l -1.55222,-0.3175 1.69333,0.07055 c 0.91722,0.03528 1.65806,-0.03528 1.65806,-0.176389 0,-0.388055 -2.36361,-0.9525 -3.24556,-0.740833 -0.67028,0.141111 -0.70555,0.105833 -0.28222,-0.246944 0.67028,-0.529167 -2.36361,-0.141112 -4.37444,0.529166 -0.77612,0.282223 -1.51695,0.423334 -1.69334,0.3175 -0.14111,-0.105833 -2.04611,-2.645833 -4.23333,-5.679722 -2.15195,-3.033889 -4.23334,-5.820834 -4.550844,-6.138334 -0.3175,-0.3175 -3.42194,-1.516945 -6.87916,-2.610556 -3.4925,-1.093611 -6.56167,-2.257778 -6.91445,-2.54 -1.37583,-1.199444 -3.66889,-8.784167 -4.05694,-13.405556 -0.21167,-2.54 -0.21167,-2.54 0.74083,-2.786945 2.96334,-0.740833 11.14778,-7.655278 12.62945,-10.653889 0.77611,-1.587501 0.81139,-2.010834 0.81139,-10.301112 0,-4.7625 0.14111,-8.854723 0.28222,-9.101667 0.21166,-0.3175 4.092224,-0.423334 17.391944,-0.423334 h 17.07445 v -1.234717 -1.234722 h -16.54528 c -14.393334,0 -16.580564,-0.07056 -16.756954,-0.529167 -0.24694,-0.670278 -0.74083,-0.670278 -1.41111,0.03528 -0.3175,0.282222 -0.56444,0.352777 -0.56444,0.141111 0,-0.211667 0.24694,-0.458611 0.52917,-0.564445 0.84666,-0.352777 0.59972,-0.740833 -0.52917,-0.917222 -0.81139,-0.105833 -1.27,0.07056 -2.01083,0.846667 -0.59973,0.635 -1.02306,0.846666 -1.19945,0.599722 -0.17639,-0.282222 -0.28222,-0.282222 -0.45861,0 -0.17639,0.282222 -6.87917,0.388056 -23.459724,0.388056 -20.143612,0 -23.283335,-0.07056 -23.67139,-0.529167 -0.246945,-0.282222 -0.564445,-0.458611 -0.705556,-0.352778 -0.141111,0.105833 -0.458611,-0.07055 -0.705555,-0.352778 -0.529167,-0.635 -1.552223,-0.705555 -1.199445,-0.105833 0.141111,0.246944 -0.07055,0.176389 -0.458611,-0.176389 -0.493889,-0.423335 -0.811389,-0.529169 -0.987778,-0.282224 z m 55.174449,4.021667 c 0.0353,0.176389 -0.10583,0.176389 -0.3175,0.07055 -0.17639,-0.105833 -0.35278,-0.564444 -0.3175,-0.987778 0,-0.740833 0.0353,-0.740833 0.3175,-0.07056 0.17639,0.388055 0.3175,0.846667 0.3175,0.987778 z m -2.8575,1.164166 c 0.0706,0.388056 -0.24695,2.293056 -0.635,4.233334 -0.42333,1.905 -1.12889,5.432778 -1.5875,7.831667 -0.45861,2.363612 -1.05833,4.691945 -1.34056,5.150556 -0.81139,1.199445 -3.77472,2.998611 -6.63222,3.951111 -3.175,1.058334 -3.59833,1.093612 -3.31611,0.03528 0.14111,-0.423333 0.52917,-1.093611 0.88194,-1.481667 1.86973,-2.046111 1.51695,-4.480278 -0.70555,-4.691944 -0.70556,-0.07056 -1.69334,-0.564445 -2.36361,-1.128889 -0.635003,-0.564445 -1.834448,-1.199445 -2.645837,-1.411111 -0.846666,-0.211667 -2.081389,-0.529167 -2.751667,-0.740834 -1.693333,-0.423333 -2.116666,-0.388055 -2.116666,0.211667 0,0.282222 -0.458612,0.740833 -1.023056,1.023056 -1.164167,0.599722 -3.033889,2.681111 -3.351389,3.668889 -0.141111,0.388055 -0.635,0.811389 -1.128889,0.917222 -1.340556,0.352778 -1.799167,1.728611 -1.093611,3.245556 0.599722,1.199444 0.564444,1.234722 0,1.058333 -7.020278,-2.116667 -8.643056,-2.786945 -9.842501,-4.162778 -0.881944,-0.917222 -8.960556,-17.709446 -8.960556,-18.556112 0,-0.141111 10.900834,-0.176389 24.235835,-0.07056 l 24.271117,0.176389 z m -16.22778,16.227779 c 1.05833,0.740834 1.02306,2.398889 -0.141111,3.915834 -0.705556,0.9525 -0.881945,1.446389 -0.705556,2.293056 0.282223,1.446389 -0.458611,2.575278 -2.046111,3.104444 -2.010833,0.670278 -3.421945,-0.282222 -3.915833,-2.54 -0.141112,-0.670278 -0.599723,-1.199444 -1.552223,-1.693333 -1.481667,-0.740834 -1.975555,-1.658056 -1.658055,-2.963334 0.246944,-0.987778 1.552222,-1.622778 3.4925,-1.658056 0.811389,0 2.046111,-0.246944 2.716389,-0.493889 1.658055,-0.635 2.8575,-0.635 3.81,0.03528 z"
       id="path3"
       style="stroke-width:0.0352778" />
    <path
       d="m 74.687887,42.102368 c -0.493889,0.529167 -0.211667,1.199445 0.493889,1.199445 0.493889,0 0.670278,-0.176389 0.599722,-0.599722 -0.105833,-0.635001 -0.705556,-0.952501 -1.093611,-0.599723 z"
       id="path4"
       style="stroke-width:0.0352778" />
    <path
       d="m 70.03122,43.301813 c -0.282222,0.493889 0.105833,1.058333 0.740833,1.058333 0.282223,0 0.493889,-0.3175 0.493889,-0.705555 0,-0.740834 -0.846667,-0.987778 -1.234722,-0.352778 z"
       id="path5"
       style="stroke-width:0.0352778" />
    <path
       d="m 72.853442,46.159313 c 0,0.176389 0.176389,0.246944 0.352778,0.141111 0.211666,-0.105833 0.352778,-0.282222 0.352778,-0.388055 0,-0.07056 -0.141112,-0.141112 -0.352778,-0.141112 -0.176389,0 -0.352778,0.176389 -0.352778,0.388056 z"
       id="path6"
       style="stroke-width:0.0352778" />
  </g>
</svg>
