<?xml version="1.0" encoding="UTF-8" standalone="no"?>
<!-- Created with Inkscape (http://www.inkscape.org/) -->

<svg
   width="150mm"
   height="150mm"
   viewBox="0 0 150 150"
   version="1.1"
   id="svg1"
   inkscape:version="1.4 (e7c3feb1, 2024-10-09)"
   sodipodi:docname="arbre-2-dos.svg"
   xmlns:inkscape="http://www.inkscape.org/namespaces/inkscape"
   xmlns:sodipodi="http://sodipodi.sourceforge.net/DTD/sodipodi-0.dtd"
   xmlns="http://www.w3.org/2000/svg"
   xmlns:svg="http://www.w3.org/2000/svg">
  <sodipodi:namedview
     id="namedview1"
     pagecolor="#ffffff"
     bordercolor="#000000"
     borderopacity="0.25"
     inkscape:showpageshadow="2"
     inkscape:pageopacity="0.0"
     inkscape:pagecheckerboard="0"
     inkscape:deskcolor="#d1d1d1"
     inkscape:document-units="mm"
     inkscape:zoom="0.26205012"
     inkscape:cx="-297.65298"
     inkscape:cy="478.91601"
     inkscape:window-width="1152"
     inkscape:window-height="688"
     inkscape:window-x="1920"
     inkscape:window-y="57"
     inkscape:window-maximized="0"
     inkscape:current-layer="layer1" />
  <defs
     id="defs1" />
  <g
     inkscape:label="Calque 1"
     inkscape:groupmode="layer"
     id="layer1">
    <path
       d="m 31.393322,20.030868 c -0.564444,0.529166 -0.176388,1.516944 0.811389,2.2225 2.434167,1.728611 11.147779,4.974167 17.921113,6.702778 3.563055,0.917222 3.033889,0.493889 6.35,4.974167 0.282222,0.352778 0.846667,3.563056 1.340556,7.267223 1.305278,10.442223 1.234722,10.265834 6.632222,14.111112 4.868334,3.457222 5.856112,4.303889 5.856112,4.868333 0,0.246945 -0.705556,1.481667 -1.5875,2.786945 -0.846667,1.305278 -1.799167,3.175 -2.116667,4.162778 -0.670278,2.257778 -0.670278,6.491111 -0.03528,9.207501 l 0.493889,2.081389 -2.963333,2.822222 c -4.445001,4.268611 -6.420556,7.584723 -5.997223,9.948334 0.3175,1.622778 3.81,6.808615 7.231945,10.68916 1.5875,1.76389 2.8575,3.31611 2.8575,3.45722 0,0.35278 -2.398889,1.23473 -3.457222,1.23473 -1.058334,0 -1.834445,0.56444 -1.834445,1.34055 0,0.28222 -0.564444,1.12889 -1.234722,1.86972 -0.917223,1.02306 -1.234723,1.69334 -1.234723,2.57528 0,1.76389 0.529167,1.83445 1.164167,0.17639 0.423334,-1.12889 0.881945,-1.55222 2.187222,-2.11666 0.917223,-0.38806 1.728612,-0.63501 1.834445,-0.52917 0.105833,0.10583 -0.07055,0.91722 -0.388056,1.83444 -0.705555,2.08139 -0.705555,3.45723 -0.03528,4.02167 0.811389,0.67028 1.234722,0.0706 1.234722,-1.69333 0.03528,-2.25778 0.987778,-4.19806 3.139722,-6.31473 1.305278,-1.30527 1.799167,-2.04611 1.799167,-2.75166 0,-1.09361 -3.845278,-8.607775 -5.997222,-11.818054 l -1.375834,-2.010834 2.187223,-1.622778 c 1.199444,-0.881944 3.069166,-2.504722 4.1275,-3.563056 2.293056,-2.363611 3.069167,-2.504722 3.351389,-0.670277 0.423333,2.998611 1.693333,6.773333 2.998611,8.960556 0.776111,1.305278 2.963334,4.339168 4.868334,6.738053 4.021667,5.11528 5.044722,6.73805 6.0325,9.73667 2.010834,5.92666 -0.03528,11.28888 -5.221111,13.58194 -2.116667,0.91722 -4.833056,0.67028 -7.055556,-0.70556 -2.998612,-1.83444 -4.445,-6.24416 -2.8575,-8.81944 0.917222,-1.55222 1.940277,-2.01083 4.409722,-2.04611 2.010834,0 2.116667,-0.0353 2.2225,-0.9525 0.211667,-1.86972 -3.175,-2.75167 -5.679722,-1.48167 -3.033889,1.51695 -4.268612,3.59834 -4.268612,7.05556 0.03528,5.82083 4.515556,10.16 10.548057,10.12472 3.280833,0 5.573889,-0.98778 7.866944,-3.42194 2.71639,-2.8575 3.35139,-4.37445 3.527778,-8.32556 0.246945,-5.57389 -1.305277,-9.03111 -7.478889,-16.756945 -4.727222,-5.961941 -7.161389,-10.90083 -6.843889,-14.005274 0.105833,-1.340556 0.03528,-1.305278 3.880556,-0.493889 1.481666,0.3175 4.056944,0.564444 5.644444,0.564444 h 2.963334 l 1.128889,3.563056 c 1.446389,4.409722 4.162778,10.689161 4.903611,11.324161 0.388056,0.317497 1.658056,0.458617 3.774723,0.458617 2.751668,0 3.421948,0.14111 4.727218,0.84666 0.81139,0.49389 1.48167,0.98778 1.48167,1.12889 0,0.17639 0.3175,0.45861 0.67028,0.635 0.49389,0.28222 0.77611,0.24695 1.05833,-0.10583 0.59972,-0.70556 -0.81139,-2.25778 -2.92805,-3.174997 l -1.79917,-0.811388 1.48167,-0.74083 c 1.62277,-0.84667 2.96333,-0.98778 4.05694,-0.38806 1.12889,0.59972 1.16417,0.0706 0.0706,-1.02306 -0.88194,-0.88194 -1.37583,-1.05833 -3.63361,-1.23472 -2.57528,-0.21166 -2.61056,-0.21166 -4.02167,0.98778 -0.776109,0.67028 -1.728609,1.23472 -2.081387,1.23472 -0.705555,0 -0.705555,-0.0353 -1.516944,-5.538609 -0.705556,-4.93889 -1.375834,-7.514168 -2.504722,-9.877779 -0.740834,-1.552222 -1.164167,-1.975556 -2.71639,-2.681111 -1.763889,-0.811389 -6.103055,-2.081389 -8.748889,-2.504723 -1.516945,-0.282222 -1.728611,-0.740833 -1.728611,-4.092222 0.03528,-2.716389 0.3175,-4.1275 2.010833,-9.630834 1.164167,-3.739445 1.411111,-4.233334 2.363612,-4.727222 1.728611,-0.881945 8.748889,-5.715001 9.948333,-6.879168 1.446389,-1.375833 2.046112,-3.527778 2.963334,-10.689167 0.881944,-6.914445 1.128889,-7.761112 2.434171,-9.136945 0.56444,-0.599722 1.27,-1.552222 1.5875,-2.116667 0.45861,-0.881944 1.19944,-1.234722 6.63222,-3.033889 7.72583,-2.575278 9.31333,-3.280833 9.525,-4.162778 0.42333,-1.552222 -0.56445,-1.516944 -5.36222,0.246945 -2.08139,0.776111 -5.3975,1.905 -7.37306,2.469444 -3.28083,0.987778 -3.70417,1.023056 -4.37444,0.564445 -1.09362,-0.740834 -3.316115,-0.705556 -3.598338,0.07055 -0.388055,1.164167 -1.763889,1.763889 -5.468056,2.328334 -8.995834,1.375833 -21.060834,1.658055 -28.75139,0.599722 -3.280834,-0.423333 -4.374445,-0.917222 -4.797778,-2.046111 -0.282223,-0.776111 -0.458612,-0.846667 -1.975556,-0.635 -0.917222,0.105833 -1.763889,0.423333 -1.940278,0.705555 -0.246944,0.423334 -0.705556,0.423334 -3.175,-0.141111 C 46.950823,25.851701 40.071656,23.48809 36.120545,21.547812 32.522211,19.783923 31.816656,19.572257 31.393322,20.030868 Z m 64.805282,10.900834 c 0.458611,1.234722 0.141111,2.822222 -1.5875,7.3025 -0.987778,2.54 -2.151944,5.926667 -2.575278,7.443612 l -0.811389,2.822222 -2.786944,1.481667 c -1.552223,0.811389 -3.139723,1.5875 -3.527778,1.693333 l -0.776111,0.246945 0.670277,-1.375834 c 0.917223,-1.869722 0.458612,-3.245555 -1.058333,-3.245555 -0.811389,0 -1.199445,-0.246945 -1.5875,-1.023056 -0.529167,-0.987778 -2.469445,-2.716389 -3.951111,-3.4925 -0.670278,-0.352778 -1.023056,-0.211667 -2.540001,0.881944 -0.9525,0.705556 -2.081389,1.834445 -2.54,2.469445 -0.564444,0.846667 -1.058333,1.164167 -1.763889,1.164167 -1.728611,0 -1.975555,2.328333 -0.388055,3.915833 1.446389,1.446389 0.635,1.27 -3.069167,-0.564444 -3.104445,-1.552223 -3.175,-1.622778 -3.563056,-3.245556 -0.246944,-0.917222 -1.375833,-4.303889 -2.54,-7.514167 -3.139723,-8.854723 -3.069167,-9.06639 2.434167,-8.466667 4.938889,0.564444 22.824723,0.246944 27.410835,-0.458612 4.268611,-0.670277 4.303889,-0.670277 4.550833,-0.03528 z"
       id="path32"
       style="stroke-width:0.0352778" />
  </g>
</svg>
