<?xml version="1.0" encoding="UTF-8" standalone="no"?>
<!-- Created with Inkscape (http://www.inkscape.org/) -->

<svg
   width="150mm"
   height="150mm"
   viewBox="0 0 150 150"
   version="1.1"
   id="svg1"
   inkscape:version="1.4 (e7c3feb1, 2024-10-09)"
   sodipodi:docname="arbre-1-D.svg"
   xmlns:inkscape="http://www.inkscape.org/namespaces/inkscape"
   xmlns:sodipodi="http://sodipodi.sourceforge.net/DTD/sodipodi-0.dtd"
   xmlns="http://www.w3.org/2000/svg"
   xmlns:svg="http://www.w3.org/2000/svg">
  <sodipodi:namedview
     id="namedview1"
     pagecolor="#ffffff"
     bordercolor="#000000"
     borderopacity="0.25"
     inkscape:showpageshadow="2"
     inkscape:pageopacity="0.0"
     inkscape:pagecheckerboard="0"
     inkscape:deskcolor="#d1d1d1"
     inkscape:document-units="mm"
     inkscape:zoom="0.26205012"
     inkscape:cx="366.34213"
     inkscape:cy="555.23729"
     inkscape:window-width="1152"
     inkscape:window-height="688"
     inkscape:window-x="1920"
     inkscape:window-y="57"
     inkscape:window-maximized="0"
     inkscape:current-layer="layer1" />
  <defs
     id="defs1" />
  <g
     inkscape:label="Calque 1"
     inkscape:groupmode="layer"
     id="layer1">
    <path
       d="m 39.936997,23.088872 v 1.234722 h 9.842501 c 8.713612,0 9.877778,0.07056 10.301112,0.599722 0.388055,0.458612 0.493889,2.363612 0.493889,8.890001 0,8.078612 0.03528,8.396112 0.846666,10.265834 1.375834,3.033889 3.598334,6.596945 5.397501,8.643056 0.9525,1.023056 1.693333,2.116667 1.693333,2.434167 0,0.917222 -1.905,4.480278 -4.550833,8.466667 -1.340556,2.010834 -2.751667,4.691945 -3.210278,5.926667 -0.9525,2.751667 -1.305278,7.65528 -0.740834,10.08945 l 0.423334,1.76388 -1.411112,1.86973 c -1.975555,2.61055 -3.774722,6.35 -4.621389,9.70139 -0.917222,3.4925 -1.023055,10.371662 -0.246944,14.111112 1.411111,6.6675 5.221111,13.0175 9.948334,16.61583 5.185833,3.95111 11.359445,4.97417 15.028334,2.46945 3.210278,-2.18723 4.409722,-5.89139 2.786945,-8.53723 -1.199445,-1.94027 -3.210278,-2.43416 -3.704167,-0.88194 -0.105834,0.38806 0.141111,1.34056 0.564444,2.15194 0.705556,1.41112 0.705556,1.55223 0.176389,2.68112 -0.917222,1.94027 -2.434167,2.64583 -5.3975,2.46944 -3.280834,-0.17639 -5.785556,-1.41111 -8.890001,-4.33917 -2.786944,-2.61055 -5.256389,-6.6675 -6.596945,-10.90083 -1.728611,-5.32695 -1.516944,-12.735282 0.458611,-17.815282 0.952501,-2.39889 3.175001,-6.0325 3.845278,-6.24417 0.529167,-0.17639 9.278057,7.16139 9.70139,8.14917 0.3175,0.635 0.141111,1.65806 -0.740833,4.83306 -0.599723,2.2225 -1.199445,4.797772 -1.305278,5.785552 -0.176389,1.76389 -0.141111,1.76389 1.481666,3.13972 0.917223,0.74084 1.799167,1.83445 2.010834,2.36362 0.493889,1.41111 0.987778,1.27 0.987778,-0.28223 v -1.30527 l 1.234722,1.19944 c 0.705556,0.67028 1.411111,1.83444 1.622778,2.57528 0.282222,1.02305 0.458611,1.30528 0.740833,1.02305 0.282223,-0.28222 0.3175,-0.74083 0.03528,-1.65805 -0.493889,-1.5875 0.07056,-1.27 0.599722,0.35278 0.211667,0.67027 0.564445,1.23472 0.740834,1.23472 0.493889,0 0.388055,-1.48167 -0.211667,-2.61056 -0.3175,-0.56444 -0.458611,-1.09361 -0.388055,-1.16416 0.105833,-0.10584 0.529166,0.52916 0.9525,1.37583 0.776111,1.51694 1.27,1.37583 0.881944,-0.24695 -0.388056,-1.55222 -2.081389,-3.10444 -4.691945,-4.26861 l -2.575278,-1.19944 1.763889,-2.43417 c 2.540001,-3.492502 3.527778,-5.785552 3.527778,-8.255002 0,-2.75167 -0.493889,-3.70417 -3.880555,-7.83167 -3.245556,-3.91583 -4.233334,-5.25638 -2.398889,-3.28083 1.128889,1.23472 1.340555,1.30528 4.339166,1.62278 4.374445,0.49389 4.409723,0.52917 4.409723,6.73805 0,5.60917 0.246944,6.27945 2.398889,7.02028 0.917219,0.28223 1.834439,0.9525 2.398889,1.69334 1.05833,1.340552 1.69333,1.305272 1.16416,-0.10584 -0.17638,-0.49389 -0.24694,-0.98777 -0.14111,-1.09361 0.38806,-0.42333 2.68111,1.12889 3.38667,2.293062 0.67028,1.05833 1.37583,1.55222 1.37583,0.88194 0,-0.14111 -0.35277,-0.88194 -0.74083,-1.658052 -0.59972,-1.09361 -0.635,-1.30528 -0.17639,-0.88195 0.35278,0.24695 0.84667,0.9525 1.16417,1.516952 0.35278,0.70555 0.635,0.91722 0.88194,0.67027 0.42334,-0.42333 -0.10583,-1.552222 -1.44639,-3.069162 -0.59972,-0.70556 -0.42333,-0.59972 0.52917,0.28222 1.79917,1.65806 2.39889,1.16417 0.81139,-0.635 -1.48167,-1.65806 -1.905,-1.86972 -4.93889,-2.29306 -1.41111,-0.21166 -2.61056,-0.42333 -2.71639,-0.49388 -0.0705,-0.0706 0.45861,-1.79917 1.12889,-3.81001 0.91722,-2.68111 1.27,-4.30388 1.27,-5.89138 0,-4.05695 -1.55222,-5.64445 -7.549443,-7.65528 -2.328333,-0.81139 -2.469444,-0.81139 -3.175,-0.21167 -0.635,0.52917 -0.635,0.49389 0.105834,-0.52917 1.5875,-2.32833 4.056944,-9.489719 5.715,-16.509997 0.670278,-2.963334 0.846667,-3.316111 2.610549,-5.115278 2.36362,-2.434167 5.04473,-6.561667 6.56167,-10.124723 l 1.19945,-2.751667 v -8.325556 c 0,-6.526389 0.10583,-8.431389 0.49389,-8.890001 0.42333,-0.529166 1.65805,-0.599722 11.35944,-0.599722 h 10.90083 V 23.088872 21.85415 H 77.860611 39.936997 Z m 46.884173,1.234722 h 3.66889 l -0.21167,2.187223 c -0.14111,1.234722 -0.77611,4.515555 -1.48167,7.337778 -0.67028,2.822222 -1.23472,5.644445 -1.23472,6.279445 0,1.375833 -0.67028,2.751666 -1.86972,3.915833 -1.23472,1.128889 -2.57528,0.776111 -3.245558,-0.811389 -0.740833,-1.799167 -2.081389,-2.681111 -4.021667,-2.681111 -2.892778,0 -5.609167,1.693333 -7.866945,4.938889 l -0.635,0.881945 -1.27,-1.411112 c -1.905,-2.151944 -2.610555,-3.421944 -2.610555,-4.7625 0,-0.670278 -0.564445,-3.457222 -1.234723,-6.173611 -0.670278,-2.716389 -1.340555,-5.997223 -1.446389,-7.302501 l -0.246944,-2.363611 5.609167,-0.141111 c 3.069167,-0.07056 7.584723,-0.07056 10.018889,-0.03528 2.434167,0.07056 6.067775,0.141111 8.078615,0.141111 z m -6.385281,18.767779 c 0.246944,0.246945 0.423333,0.705556 0.423333,1.023056 0,0.846666 1.340556,1.728611 2.575278,1.728611 1.09361,0 2.71639,1.375833 2.71639,2.293056 0,0.3175 -0.35278,0.705555 -0.77611,0.881944 l -0.81139,0.3175 h 0.81139 c 1.02305,0.03528 0.98778,0.776111 -0.14111,1.975556 -0.77611,0.846667 -1.09361,0.9525 -2.469448,0.776111 -1.940278,-0.211667 -3.069167,-1.164167 -3.668889,-3.175 -0.246944,-0.811389 -0.635,-1.799167 -0.917222,-2.187223 -0.529167,-0.740833 -0.635,-2.2225 -0.211667,-2.8575 0.246945,-0.388055 1.481667,-1.164166 1.869723,-1.199444 0.105833,0 0.352777,0.176389 0.599722,0.423333 z m -7.373056,4.621389 c 0.211666,0.282223 0.493889,0.987778 0.599722,1.5875 0.176389,0.846667 0.07056,1.128889 -0.493889,1.446389 -1.481667,0.776112 -3.316111,-1.869722 -2.116667,-3.069166 0.564445,-0.564445 1.516945,-0.529167 2.010834,0.03528 z"
       id="path35"
       style="stroke-width:0.0352778" />
  </g>
</svg>
