<?xml version="1.0" encoding="UTF-8" standalone="no"?>
<!-- Created with Inkscape (http://www.inkscape.org/) -->

<svg
   width="150mm"
   height="150mm"
   viewBox="0 0 150 150"
   version="1.1"
   id="svg1"
   inkscape:version="1.4 (e7c3feb1, 2024-10-09)"
   sodipodi:docname="monkey-5-D.svg"
   xmlns:inkscape="http://www.inkscape.org/namespaces/inkscape"
   xmlns:sodipodi="http://sodipodi.sourceforge.net/DTD/sodipodi-0.dtd"
   xmlns="http://www.w3.org/2000/svg"
   xmlns:svg="http://www.w3.org/2000/svg">
  <sodipodi:namedview
     id="namedview1"
     pagecolor="#ffffff"
     bordercolor="#000000"
     borderopacity="0.25"
     inkscape:showpageshadow="2"
     inkscape:pageopacity="0.0"
     inkscape:pagecheckerboard="0"
     inkscape:deskcolor="#d1d1d1"
     inkscape:document-units="mm"
     inkscape:zoom="0.37059484"
     inkscape:cx="388.56451"
     inkscape:cy="195.63144"
     inkscape:window-width="1152"
     inkscape:window-height="688"
     inkscape:window-x="1920"
     inkscape:window-y="57"
     inkscape:window-maximized="0"
     inkscape:current-layer="layer1" />
  <defs
     id="defs1" />
  <g
     inkscape:label="Calque 1"
     inkscape:groupmode="layer"
     id="layer1">
    <path
       d="m 72.196472,20.607615 c -0.776111,0.282222 -1.058333,1.164167 -1.128889,3.81 -0.07055,2.998612 -2.892778,5.080001 -10.4775,7.831668 -9.525001,3.386666 -10.936112,3.951111 -14.005279,5.468055 -6.103056,2.998612 -10.160001,6.632223 -12.311945,11.006668 -0.987778,2.010833 -1.199445,2.786944 -1.27,5.3975 -0.176389,3.668889 0.388055,5.856112 2.293055,9.101667 1.587501,2.716389 6.244168,7.690556 9.242779,9.913057 1.164167,0.881944 2.116667,1.763889 2.151944,1.975555 0,0.211667 -0.246944,0.987778 -0.529166,1.658056 -0.282223,0.740833 -0.529167,2.363611 -0.529167,3.739445 0,4.339167 2.116667,8.678334 7.408334,15.345832 3.457222,4.374452 3.386667,4.02167 1.693333,6.067782 -0.776111,0.9525 -1.799167,2.50472 -2.257778,3.4925 -3.139722,6.70278 -6.455833,14.2875 -6.632222,15.16945 -0.282223,1.37583 0.352777,2.57527 1.869722,3.59833 1.128889,0.77611 1.552222,0.81139 6.843889,0.81139 4.903612,0 5.57389,-0.0706 5.185834,-0.52917 -0.493889,-0.59972 -3.951111,-1.94028 -5.044723,-1.94028 -1.5875,0 -3.421944,-0.74083 -3.421944,-1.34055 0,-0.3175 2.257778,-3.63361 4.974167,-7.3025 2.751667,-3.70417 5.961945,-8.11389 7.126111,-9.87778 l 2.116667,-3.13972 -0.423333,-3.457232 C 64.61175,93.562068 62.636194,85.20123 61.542583,82.273175 c -0.388056,-1.023056 -0.670278,-1.905001 -0.599722,-1.975556 0.141111,-0.141111 2.681111,5.3975 2.681111,5.856111 0,0.670278 1.552222,1.375834 7.549445,3.527778 4.903611,1.76389 6.35,2.15194 8.184445,2.15194 2.328333,0 8.219722,-1.02305 11.43,-1.975551 l 1.86972,-0.564444 -0.21166,-2.504723 c -0.10584,-1.411111 -0.28223,-2.8575 -0.42334,-3.245555 -0.14111,-0.493889 -0.0705,-0.423334 0.3175,0.176389 1.12889,1.869722 1.41111,5.362222 1.02306,11.959164 l -0.38806,6.208892 1.05834,2.46945 c 0.59972,1.34055 2.50472,5.15055 4.26861,8.43139 1.728608,3.28083 3.598328,6.94972 4.127498,8.11389 0.56444,1.19944 1.41111,2.54 1.94028,3.03388 0.91722,0.84667 1.12888,0.88195 6.42055,0.98778 3.38667,0.0706 5.3975,0 5.25639,-0.21166 -0.35278,-0.59973 -2.54,-1.48167 -5.04472,-2.04612 -4.05695,-0.91722 -4.09222,-0.98777 -6.10306,-9.24277 -0.9525,-3.91584 -2.15194,-8.50195 -2.68111,-10.12473 l -0.91722,-2.99861 1.44639,-6.244162 c 1.65805,-7.23195 3.70416,-14.252228 3.84528,-13.370283 0.10583,0.493888 0.49388,0.564444 2.99861,0.388055 8.07861,-0.529167 9.31333,-0.846667 10.05416,-2.469444 0.38806,-0.846667 0.35278,-0.881945 -0.74083,-0.881945 -0.59972,0 -1.37583,-0.141111 -1.62278,-0.3175 -0.35277,-0.211667 0,-0.282222 0.9525,-0.141111 1.16417,0.141111 1.51695,0.07055 1.69334,-0.423333 0.35277,-0.846667 -0.56445,-2.504723 -2.46945,-4.62139 -1.83444,-2.081389 -2.01083,-2.8575 -0.74083,-3.951111 1.12889,-0.987778 1.09361,-1.305278 -0.0706,-2.081389 -0.56444,-0.352778 -1.94027,-1.375833 -3.10444,-2.328334 -2.61056,-2.081389 -5.18584,-3.069166 -8.00806,-3.069166 -2.78694,0 -4.62139,0.881944 -7.549438,3.598333 -2.2225,2.081389 -2.25778,2.116667 -4.62139,2.2225 -1.34056,0.07056 -4.621391,0.529167 -7.33778,1.058334 -6.596905,1.234722 -10.230516,1.411111 -16.756905,0.881944 -10.477501,-0.846667 -15.875001,-0.529167 -19.155835,1.128889 l -1.305278,0.670278 -1.693333,-1.128889 c -3.139723,-2.151945 -6.914445,-6.314723 -8.396112,-9.278056 -1.164167,-2.363611 -1.340556,-3.069167 -1.340556,-5.115278 0,-3.81 1.728612,-6.879167 5.503334,-9.771945 3.986389,-3.069167 7.655278,-4.833056 17.215557,-8.255001 9.771945,-3.527778 13.440834,-5.997222 14.605001,-9.877778 1.27,-4.233334 0.03528,-7.267223 -2.504723,-6.314723 z m 35.101388,45.825836 c 1.16417,1.093612 0.9525,1.552223 -0.28222,0.635 -0.81139,-0.564444 -1.16417,-0.670277 -1.48167,-0.352777 -0.59972,0.599722 -0.49389,2.434166 0.24695,3.245555 0.91722,1.023056 0.3175,1.340556 -0.70556,0.352778 -1.55222,-1.446389 -0.98778,-4.586111 0.84667,-4.586111 0.3175,0 0.9525,0.3175 1.37583,0.705555 z m 8.00806,5.715001 c 0.10583,0.246944 -0.0353,0.141111 -0.3175,-0.211667 -0.3175,-0.388055 -0.56445,-1.023056 -0.52917,-1.411111 0.0353,-0.599722 0.0706,-0.564445 0.3175,0.211667 0.14111,0.493888 0.38806,1.128889 0.52917,1.411111 z m 3.35139,2.398889 c 0,0.176389 -0.24695,0.246944 -0.52917,0.141111 -0.28222,-0.141111 -0.42333,-0.352778 -0.3175,-0.529167 0.21167,-0.388055 0.84667,-0.07055 0.84667,0.388056 z"
       id="path1"
       style="stroke-width:0.0352778" />
    <path
       d="m 64.717583,89.364008 c -0.03528,0.282223 0.282222,2.32833 0.670278,4.55083 0.388055,2.18723 0.705555,4.7625 0.705555,5.67973 0,1.799162 -0.635,2.928052 -4.691944,8.607772 -2.010834,2.78695 -2.010834,2.78695 -2.010834,5.29167 0.03528,1.37584 0.176389,4.09222 0.352778,5.99722 0.246944,3.06917 0.423333,3.59834 1.199445,4.40973 0.917222,0.91722 0.987777,0.91722 7.020278,1.02305 l 6.067778,0.0706 -0.811389,-0.70556 c -0.987778,-0.81139 -3.951111,-1.76389 -5.573889,-1.76389 -0.599723,0 -1.481667,-0.28222 -1.940278,-0.67027 l -0.811389,-0.67028 0.987778,-5.22111 c 1.834444,-9.59556 2.681111,-14.74612 2.681111,-16.263062 0,-2.08139 -3.81,-12.311945 -3.845278,-10.33639 z"
       id="path14"
       style="stroke-width:0.0352778" />
    <path
       d="m 89.094529,91.269008 c -1.622778,0.45861 -3.069167,0.9525 -3.245556,1.12889 -0.564444,0.56444 -2.822222,7.620002 -2.822222,8.784172 0,1.23472 1.375833,5.36222 4.550833,13.86416 1.164167,3.13973 2.151945,5.99723 2.151945,6.35 0.03528,0.9525 0.846667,2.18723 1.975553,2.92806 0.88195,0.59972 1.69334,0.67028 6.49111,0.67028 h 5.468058 l -1.41111,-0.9525 c -1.44639,-0.98778 -4.974168,-2.2225 -6.349998,-2.2225 -0.42333,0 -1.12889,-0.28222 -1.51695,-0.635 -0.635,-0.52917 -0.81138,-1.55222 -1.48166,-7.37306 -0.38806,-3.70416 -0.9525,-8.11389 -1.23473,-9.80722 -0.423328,-2.64583 -0.423328,-3.24556 0.0353,-4.691952 0.59972,-1.905 1.09361,-8.89 0.635,-8.85472 -0.17639,0 -1.622775,0.38806 -3.245553,0.81139 z"
       id="path15"
       style="stroke-width:0.0352778" />
  </g>
</svg>
