<?xml version="1.0" encoding="UTF-8" standalone="no"?>
<!-- Created with Inkscape (http://www.inkscape.org/) -->

<svg
   width="150mm"
   height="150mm"
   viewBox="0 0 150 150"
   version="1.1"
   id="svg1"
   inkscape:version="1.4 (e7c3feb1, 2024-10-09)"
   sodipodi:docname="monkey-4-G.svg"
   xmlns:inkscape="http://www.inkscape.org/namespaces/inkscape"
   xmlns:sodipodi="http://sodipodi.sourceforge.net/DTD/sodipodi-0.dtd"
   xmlns="http://www.w3.org/2000/svg"
   xmlns:svg="http://www.w3.org/2000/svg">
  <sodipodi:namedview
     id="namedview1"
     pagecolor="#ffffff"
     bordercolor="#000000"
     borderopacity="0.25"
     inkscape:showpageshadow="2"
     inkscape:pageopacity="0.0"
     inkscape:pagecheckerboard="0"
     inkscape:deskcolor="#d1d1d1"
     inkscape:document-units="mm"
     inkscape:zoom="0.37059484"
     inkscape:cx="388.56451"
     inkscape:cy="535.62538"
     inkscape:window-width="1152"
     inkscape:window-height="688"
     inkscape:window-x="1920"
     inkscape:window-y="57"
     inkscape:window-maximized="0"
     inkscape:current-layer="layer1" />
  <defs
     id="defs1" />
  <g
     inkscape:label="Calque 1"
     inkscape:groupmode="layer"
     id="layer1">
    <path
       d="m 94.97442,24.578017 c -2.11666,0.352778 -3.70416,1.164167 -5.36222,2.786945 -1.86972,1.763889 -2.46944,3.069166 -2.46944,5.326944 0,2.963334 1.34055,5.009445 4.05694,6.173612 2.82222,1.164167 5.22111,0.282222 5.22111,-1.905 0,-1.27 -1.41111,-2.504723 -2.8575,-2.504723 -1.12889,0 -2.15194,-1.164166 -1.83444,-2.081389 0.70555,-1.940278 2.99861,-3.210278 5.89139,-3.210278 6.91444,0 13.22917,6.914445 14.39333,15.663335 0.81139,6.208889 -1.48166,12.841112 -5.99722,17.427223 -3.42195,3.457222 -3.52778,3.4925 -12.77056,3.951111 -11.14778,0.493889 -15.5575,0.03528 -23.98889,-2.645833 -2.82222,-0.917222 -4.97416,-1.375834 -7.12611,-1.481667 -1.65805,-0.105833 -3.175,-0.282222 -3.35139,-0.423333 -0.17639,-0.105834 -0.84666,-1.058334 -1.51694,-2.116667 -2.36361,-3.774722 -5.85611,-5.185834 -10.08945,-4.162778 -2.57528,0.635 -4.02166,1.5875 -5.64444,3.598334 -0.56445,0.705555 -1.55222,1.834444 -2.18722,2.504722 -1.41112,1.411111 -1.34056,1.905 0.3175,2.434167 1.37583,0.493889 1.72861,1.516944 0.88194,2.822222 -0.81139,1.234722 -1.37583,3.880556 -1.12889,5.291667 0.21167,1.093611 0.38806,1.234722 1.30528,1.234722 0.56444,0 1.62278,-0.246944 2.32833,-0.529166 0.67028,-0.282223 1.34056,-0.529167 1.48167,-0.529167 0.49389,0.03528 -1.65806,1.058333 -2.96333,1.446389 l -1.41112,0.388056 0.84667,0.670277 c 1.02306,0.846667 3.88056,0.881945 6.0325,0.141112 0.81139,-0.282223 1.86972,-0.529167 2.29306,-0.529167 0.88194,0 0.91722,0.105833 1.44639,4.586111 0.10583,1.058334 0.74083,4.727223 1.41111,8.11389 0.67027,3.386666 1.19944,6.561667 1.19944,7.055556 0,0.776109 -6.42055,19.508616 -7.90222,23.036396 -0.56445,1.44639 -2.15195,2.36361 -3.98639,2.36361 -1.48167,0 -8.60778,2.2225 -8.46667,2.64584 0.14111,0.38805 9.91306,0.59972 13.40556,0.28222 l 2.01083,-0.17639 3.06917,-6.0325 c 1.69333,-3.35139 4.51556,-8.18445 6.27944,-10.75972 1.72862,-2.57528 3.4925,-5.18585 3.84528,-5.785567 0.635,-1.02306 0.67028,-1.37583 0.24695,-7.47889 -0.21167,-3.4925 -0.49389,-6.949722 -0.59973,-7.62 -0.17638,-1.234722 -0.17638,-1.234722 0.74084,0.458611 0.77611,1.446389 1.27,1.869722 3.10444,2.751667 3.45722,1.5875 7.3025,2.434167 11.14778,2.434167 3.52778,-0.03528 8.21972,-0.705556 9.48972,-1.375834 0.38806,-0.211666 1.76389,-1.905 3.06917,-3.739444 1.27,-1.834445 2.36361,-3.351389 2.39889,-3.351389 0.0706,0 -1.23472,2.645833 -2.82222,5.891389 -3.63361,7.302503 -4.48028,9.771943 -3.98639,11.888613 0.59972,2.751677 2.15194,6.667507 5.00944,12.558897 1.51695,3.21028 2.71639,6.13833 2.68111,6.52639 -0.10583,0.635 -0.45861,0.74083 -3.10444,0.9525 -3.31611,0.28222 -9.80722,2.04611 -9.525,2.57528 0.10583,0.21166 3.59833,0.35277 9.10167,0.35277 8.64305,-0.0353 8.92527,-0.0353 9.66611,-0.77611 0.59972,-0.59972 0.74083,-1.16416 0.70555,-2.54 0,-0.98778 -0.17639,-2.04611 -0.35277,-2.39889 -0.21167,-0.35277 -0.70556,-2.18722 -1.09362,-4.1275 -0.77611,-3.4925 -2.46944,-9.06639 -3.84527,-12.45306 l -0.74084,-1.799167 0.9525,-1.19944 c 0.52917,-0.635 2.29306,-2.50473 3.91584,-4.162783 7.51416,-7.584723 10.23055,-13.440834 9.2075,-19.685001 -0.21167,-1.305278 -0.45861,-2.751667 -0.56445,-3.245556 -0.17639,-0.776111 0.14111,-1.199444 1.86973,-2.716389 3.73944,-3.245556 7.09083,-8.819445 8.07861,-13.51139 0.59972,-2.786944 0.635,-10.336389 0.10583,-12.629445 -0.67028,-2.786944 -3.28083,-7.866945 -5.18583,-10.16 -2.01084,-2.434167 -5.15056,-4.691945 -7.9375,-5.715001 -2.15195,-0.776111 -6.10306,-1.164167 -8.39612,-0.776111 z M 53.27609,59.926353 c 1.37583,1.27 0.98778,3.880555 -0.74084,5.291667 -1.19944,0.987777 -1.41111,0.740833 -0.42333,-0.458612 1.16417,-1.340555 1.23472,-3.210278 0.17639,-3.951111 -0.84667,-0.635 -1.97556,-0.388056 -2.54,0.493889 -0.635,0.987778 -0.98778,0.811389 -0.56444,-0.3175 0.70555,-1.940278 2.64583,-2.434167 4.09222,-1.058333 z"
       id="path2"
       sodipodi:nodetypes="ccscsscscccccccccccccsccccccscsscscccccccccccccscccccccscccccccccccccccccccccc"
       style="stroke-width:0.0352778" />
    <path
       d="m 107.7097,80.881354 c -0.635,2.257778 -3.45722,6.808611 -5.89139,9.560278 -3.95111,4.445001 -3.73944,3.951111 -3.28083,7.055561 0.35278,2.681107 0.42333,2.786937 2.39889,4.797777 1.09361,1.12889 3.66889,3.35139 5.715,4.93889 8.32556,6.45584 10.23056,8.07861 10.23056,8.71361 0,1.16417 -2.57528,3.10445 -4.48028,3.35139 -3.59834,0.49389 -8.14917,2.25778 -7.69056,2.99861 0.24695,0.38806 10.795,0.21167 11.53584,-0.21166 0.3175,-0.17639 2.01083,-1.69334 3.77472,-3.38667 4.02166,-3.88055 4.09222,-4.26861 1.19944,-7.44361 -1.12889,-1.23472 -3.06916,-3.52778 -4.30389,-5.15056 -1.27,-1.5875 -3.70416,-4.26861 -5.46805,-5.92667 l -3.21028,-2.998607 0.14111,-8.960561 c 0.0706,-4.938889 0.0353,-8.960556 -0.0706,-8.960556 -0.0706,0 -0.35278,0.740833 -0.59973,1.622778 z"
       id="path12"
       style="stroke-width:0.0352778" />
    <path
       d="m 62.69526,88.677743 c 0.38805,1.446389 0.59972,6.59695 0.70555,17.991677 l 0.10583,12.065 -1.05833,0.38805 c -0.56444,0.17639 -1.62278,0.35278 -2.32833,0.38806 -1.5875,0.0353 -8.14917,2.11667 -8.14917,2.61056 0,0.42333 13.40556,0.49388 14.88722,0.0705 0.52917,-0.14111 1.12889,-0.56444 1.30528,-0.91722 0.21167,-0.35278 0.52917,-2.8575 0.70556,-5.53861 0.21166,-2.68111 0.84666,-7.83167 1.41111,-11.43 1.02305,-6.491117 1.27,-8.713617 1.16416,-11.535844 l -0.0705,-1.481667 -2.01083,-0.599722 c -1.12889,-0.3175 -3.06917,-1.023056 -4.30389,-1.5875 -2.64584,-1.199445 -2.61056,-1.199445 -2.36361,-0.423334 z"
       id="path13"
       style="stroke-width:0.0352778" />
  </g>
</svg>
