<?xml version="1.0" encoding="UTF-8" standalone="no"?>
<!-- Created with Inkscape (http://www.inkscape.org/) -->

<svg
   width="150mm"
   height="150mm"
   viewBox="0 0 150 150"
   version="1.1"
   id="svg1"
   inkscape:version="1.4 (e7c3feb1, 2024-10-09)"
   sodipodi:docname="monkey-7-G.svg"
   xmlns:inkscape="http://www.inkscape.org/namespaces/inkscape"
   xmlns:sodipodi="http://sodipodi.sourceforge.net/DTD/sodipodi-0.dtd"
   xmlns="http://www.w3.org/2000/svg"
   xmlns:svg="http://www.w3.org/2000/svg">
  <sodipodi:namedview
     id="namedview1"
     pagecolor="#ffffff"
     bordercolor="#000000"
     borderopacity="0.25"
     inkscape:showpageshadow="2"
     inkscape:pageopacity="0.0"
     inkscape:pagecheckerboard="0"
     inkscape:deskcolor="#d1d1d1"
     inkscape:document-units="mm"
     inkscape:zoom="0.37059484"
     inkscape:cx="453.32526"
     inkscape:cy="578.79921"
     inkscape:window-width="1152"
     inkscape:window-height="688"
     inkscape:window-x="1920"
     inkscape:window-y="57"
     inkscape:window-maximized="0"
     inkscape:current-layer="layer1" />
  <defs
     id="defs1" />
  <g
     inkscape:label="Calque 1"
     inkscape:groupmode="layer"
     id="layer1">
    <path
       d="m 107.41371,24.97783 c 2.99862,0.529167 6.38528,3.4925 7.97278,6.914445 4.86833,10.618612 -3.84528,28.363335 -16.474725,33.655002 -1.05833,0.458611 -2.01083,0.881945 -2.08139,0.9525 -0.0706,0.03528 0.67028,0.9525 1.62278,1.975556 3.351395,3.527778 3.951115,5.609167 4.303895,14.957778 0.38805,9.278057 0.45861,9.419168 4.72722,11.641668 2.50472,1.30528 4.02167,2.43417 7.05555,5.291671 4.05695,3.84527 6.13833,5.43277 8.21972,6.31472 1.55223,0.67028 1.72861,1.12889 1.27,3.52778 -0.45861,2.11666 -3.31611,6.70278 -4.83305,7.69055 -0.77611,0.52917 -0.9525,0.49389 -2.2225,-0.14111 -1.69334,-0.88194 -2.29306,-0.70555 -3.10445,1.09361 -1.09361,2.50473 -2.96333,2.68111 -2.46944,0.24695 0.635,-3.06917 2.25778,-4.79778 4.69194,-4.93889 1.30528,-0.0706 1.55223,-0.21167 1.86973,-1.09361 0.17638,-0.59972 0.35277,-1.09361 0.35277,-1.12889 0,-0.0706 -1.79916,-0.84667 -3.98639,-1.76389 -5.18583,-2.15194 -6.70277,-2.99861 -13.72305,-7.69056 -6.244165,-4.198051 -5.891395,-3.810001 -7.655285,-8.325551 -1.02305,-2.610558 -0.9525,-3.316114 0.635,-5.609169 1.65806,-2.469445 3.45723,-5.961945 4.30389,-8.501945 0.9525,-2.751667 0.81139,-2.681112 -0.77611,0.493889 -1.905,3.739444 -4.65666,7.902222 -7.33778,11.1125 -3.38666,4.021665 -3.42194,4.127505 -2.50472,7.514165 0.70556,2.540001 0.74083,3.527781 0.635,9.736671 -0.0353,3.81 0.0353,7.79639 0.21167,8.89 0.28222,1.905 0.24694,2.04611 -0.52917,2.43417 -0.42333,0.24694 -2.57528,0.52916 -4.69194,0.59972 -4.02167,0.14111 -4.1275,0.10583 -6.35,-1.44639 -0.88195,-0.635 -0.91723,-0.635 -2.43417,0.24694 -1.79917,1.05834 -3.95111,1.55223 -4.30389,0.9525 -0.38806,-0.59972 0.84667,-1.72861 3.175,-2.89277 2.11667,-1.09361 2.11667,-1.09361 4.83306,-0.635 1.48166,0.24694 2.8575,0.3175 3.03389,0.21166 0.21166,-0.10583 0,-1.37583 -0.52917,-3.10444 -0.45861,-1.62278 -1.09361,-3.95111 -1.37583,-5.22111 -0.59973,-2.46945 -2.25778,-14.322781 -2.25778,-16.051393 0,-0.599723 0.635,-2.504723 1.41111,-4.233334 2.68111,-6.103056 5.99722,-14.040557 5.89139,-14.14639 -0.0706,-0.07055 -1.19945,1.905 -2.50472,4.445 -1.62278,3.104445 -2.61056,4.62139 -3.13973,4.833056 -1.12889,0.388056 -9.56028,0.246945 -12.24139,-0.246944 -2.99861,-0.493889 -7.12611,-1.905 -9.34861,-3.104445 -1.69333,-0.917222 -1.76389,-1.023055 -1.94028,-2.716389 l -0.21166,-1.763889 -0.21167,1.411111 c -0.14111,0.776111 -0.45861,5.291667 -0.67028,10.054168 l -0.42333,8.643058 -1.34056,1.30528 c -2.116659,2.01083 -8.219719,6.455831 -12.347219,8.960551 -5.29167,3.175 -7.37306,5.715 -7.37306,8.99584 0,1.16416 -0.81138,2.29305 -1.37583,1.905 -0.3175,-0.17639 -0.38805,-0.67028 -0.21167,-1.44639 0.24695,-1.34056 -0.10583,-1.51695 -1.41111,-0.635 -0.70555,0.45861 -0.88194,0.88194 -0.91722,2.04611 -0.0706,2.71639 -0.42333,3.56305 -1.37583,3.56305 -0.81139,0 -0.88195,-0.14111 -0.98778,-1.94027 -0.17639,-2.96334 0.10583,-3.84528 2.2225,-6.63223 1.05833,-1.41111 1.94028,-2.78694 1.94028,-3.03389 0,-0.21166 3.03389,-4.16277 6.70278,-8.71361 4.62139,-5.679721 6.84389,-8.678332 7.09083,-9.66611 0.49389,-1.728612 -0.14111,-15.945557 -0.74083,-16.545279 -0.21167,-0.211667 -2.71639,-0.458611 -5.82084,-0.564445 -5.08,-0.176388 -5.50333,-0.246944 -6.24416,-0.987777 -0.9525,-0.9525 -0.635,-1.270001 1.5875,-1.622778 0.77611,-0.141111 1.34055,-0.3175 1.23472,-0.388056 -0.10584,-0.105833 -0.9525,-0.03528 -1.905,0.141111 -1.44639,0.282222 -1.79917,0.246945 -2.18722,-0.246944 -0.67028,-0.881945 -0.24695,-2.398889 1.34055,-4.797778 0.77611,-1.128889 1.41111,-2.398889 1.41111,-2.751667 0,-0.352778 -0.56444,-1.199445 -1.27,-1.834445 l -1.30528,-1.164166 1.44639,-1.905001 c 2.99861,-4.056944 5.29167,-5.362222 9.56028,-5.362222 4.02167,0 6.06778,1.164167 8.39611,4.903611 1.128889,1.763889 1.164169,1.763889 6.808619,2.046112 2.04611,0.105833 6.06777,0.599722 8.99583,1.093611 2.89278,0.493889 8.07861,1.058333 11.46528,1.234722 3.38666,0.211667 7.72583,0.529167 9.63083,0.705556 4.7625,0.493889 6.80861,0.458611 9.24278,-0.176389 6.385285,-1.658056 11.853335,-6.632223 15.522225,-14.111112 1.94028,-3.986389 2.64583,-6.738056 2.64583,-10.371668 0,-4.515555 -1.65805,-7.9375 -4.72722,-9.736667 -3.81,-2.2225 -8.18444,-1.058333 -10.089445,2.681111 -0.84667,1.622778 -0.91722,4.198056 -0.17639,5.644445 0.70556,1.340556 2.469445,2.434167 3.951115,2.434167 1.30528,0 3.10445,-1.375833 3.42195,-2.610556 0.38805,-1.552222 2.32833,-1.552222 2.32833,0.03528 0,3.704167 -5.11528,6.173612 -8.819455,4.268611 -2.36361,-1.199444 -3.63361,-3.280833 -3.81,-6.138333 -0.17638,-2.8575 0.56445,-4.974167 2.46945,-7.055556 2.010835,-2.187223 5.715005,-3.245556 9.136945,-2.610556 z M 36.152596,56.76311 c -1.41111,0.846667 -1.30528,1.128889 0.28222,0.670278 1.30528,-0.352778 2.64583,0.03528 2.99861,0.881944 0.70556,1.905 -0.38805,4.586112 -2.39889,5.891389 -0.9525,0.599723 -0.98778,0.670278 -0.21166,0.458612 1.83444,-0.529167 2.78694,-1.270001 3.4925,-2.751667 1.02305,-2.116667 0.98777,-3.810001 -0.17639,-4.974167 -1.12889,-1.093611 -2.36361,-1.164167 -3.98639,-0.176389 z"
       id="path19"
       style="stroke-width:0.0352778" />
    <path
       d="m 57.989535,82.233667 c 2.18723,1.093611 2.29306,1.199444 3.24556,3.4925 0.52917,1.340556 1.48167,3.139723 2.11667,4.021667 l 1.16416,1.622778 v 6.773337 c -0.0353,3.704161 -0.10583,8.643051 -0.17639,10.971391 -0.10583,2.32833 -0.10583,5.60916 0,7.3025 0.10584,2.11666 0.0353,3.21027 -0.24694,3.4925 -0.67028,0.67027 -4.65667,0.59972 -5.18583,-0.0706 -0.35278,-0.52917 -0.56445,-0.52917 -1.48167,-0.14111 -1.65806,0.70556 -4.02167,1.02306 -4.02167,0.56444 0,-0.52916 2.68111,-1.65805 5.60917,-2.39888 1.27,-0.3175 2.36361,-0.59973 2.43417,-0.67028 0.0705,-0.0353 -0.17639,-0.67028 -0.56445,-1.44639 -0.38805,-0.74083 -1.02305,-2.99861 -1.48166,-5.04472 -0.42334,-2.04611 -1.62278,-7.16139 -2.68112,-11.430001 -1.83444,-7.37306 -1.905,-7.902227 -1.905,-12.417783 0,-4.445 0.14111,-5.820834 0.67028,-5.750278 0.10583,0 1.23472,0.493889 2.50472,1.128889 z"
       id="path28"
       style="stroke-width:0.0352778" />
  </g>
</svg>
