<?xml version="1.0" encoding="UTF-8" standalone="no"?>
<!-- Created with Inkscape (http://www.inkscape.org/) -->

<svg
   width="150mm"
   height="150mm"
   viewBox="0 0 150 150"
   version="1.1"
   id="svg1"
   inkscape:version="1.4 (e7c3feb1, 2024-10-09)"
   sodipodi:docname="monkey-6-D.svg"
   xmlns:inkscape="http://www.inkscape.org/namespaces/inkscape"
   xmlns:sodipodi="http://sodipodi.sourceforge.net/DTD/sodipodi-0.dtd"
   xmlns="http://www.w3.org/2000/svg"
   xmlns:svg="http://www.w3.org/2000/svg">
  <sodipodi:namedview
     id="namedview1"
     pagecolor="#ffffff"
     bordercolor="#000000"
     borderopacity="0.25"
     inkscape:showpageshadow="2"
     inkscape:pageopacity="0.0"
     inkscape:pagecheckerboard="0"
     inkscape:deskcolor="#d1d1d1"
     inkscape:document-units="mm"
     inkscape:zoom="0.37059484"
     inkscape:cx="388.56451"
     inkscape:cy="535.62538"
     inkscape:window-width="1152"
     inkscape:window-height="688"
     inkscape:window-x="1920"
     inkscape:window-y="57"
     inkscape:window-maximized="0"
     inkscape:current-layer="layer1" />
  <defs
     id="defs1" />
  <g
     inkscape:label="Calque 1"
     inkscape:groupmode="layer"
     id="layer1">
    <path
       d="m 67.457094,25.122081 c 4.72723,0.705555 10.01889,4.515556 12.065,8.713611 0.81139,1.622778 1.02306,2.61056 1.09362,5.08 0.21166,5.29167 -1.27,8.5725 -5.18584,11.28889 -3.81,2.64583 -7.97278,2.46944 -11.21833,-0.49389 -0.84667,-0.81139 -1.79917,-1.94028 -2.08139,-2.50472 -0.49389,-0.88195 -0.49389,-1.09361 0.0353,-1.86972 0.77611,-1.19945 1.79916,-1.05834 3.28083,0.45861 1.94028,1.97555 2.92806,2.57528 4.37444,2.57528 3.70417,0 6.84389,-3.35139 7.23195,-7.79639 0.52917,-5.820837 -3.98639,-10.86556 -10.75972,-11.994449 -4.79778,-0.811389 -10.93612,1.234723 -16.086673,5.326945 -5.92667,4.691944 -9.8425,11.430004 -10.86556,18.767774 -0.91722,6.42056 1.5875,13.01751 5.82084,15.13417 1.5875,0.84667 3.52777,0.77611 7.655273,-0.17639 1.72862,-0.42333 4.51556,-0.56444 11.46528,-0.56444 5.04473,0 10.19528,-0.17639 11.43,-0.35278 1.23473,-0.21167 4.40973,-1.19944 7.05556,-2.18722 4.62139,-1.76389 4.93889,-1.83445 9.13694,-1.97556 l 4.33917,-0.14111 1.76389,-2.2225 c 2.363606,-3.03389 4.021666,-3.84528 7.478886,-3.63361 1.44639,0.0706 3.10445,0.42333 3.81,0.74083 1.69334,0.84667 5.96195,4.37445 5.96195,4.93889 0,0.28223 -0.38806,0.84667 -0.88195,1.30528 -1.27,1.19945 -1.16416,2.71639 0.35278,4.62139 1.23472,1.55222 1.94028,3.28083 1.94028,4.86833 0,0.81139 -0.0705,0.84667 -2.01083,0.635 -1.23473,-0.10583 -1.76389,-0.0705 -1.34056,0.10584 0.38806,0.17639 1.23472,0.3175 1.83445,0.3175 1.37583,0.0353 1.44638,0.35278 0.35277,1.37583 -1.44639,1.34056 -2.61055,1.55222 -7.47889,1.30528 -5.99722,-0.28222 -6.27944,-0.10583 -8.501936,4.69194 -2.57528,5.53861 -5.04473,10.30112 -6.84389,13.12334 -1.62278,2.54 -1.69334,2.71639 -1.51695,4.7625 1.48167,19.014718 1.30528,18.168048 4.16278,18.873608 3.84528,0.98778 4.55083,1.23472 5.856106,2.18722 1.34056,0.9525 1.5875,1.97556 0.38806,1.51695 -0.28223,-0.10584 -0.67028,0 -0.81139,0.24694 -0.21167,0.35278 -0.67028,0.24695 -1.975556,-0.38805 -1.34055,-0.67028 -2.32833,-0.88195 -4.7625,-0.91723 -3.56305,-0.0705 -4.30389,-0.49389 -4.65667,-2.57527 -0.10583,-0.70556 -0.98777,-3.06917 -1.94027,-5.18584 -2.57528,-5.78555 -4.33917,-11.21833 -4.51556,-14.111108 -0.17639,-2.39889 -0.10583,-2.68111 2.15195,-8.43139 1.30527,-3.28083 2.29305,-5.99722 2.2225,-6.06778 -0.0706,-0.0705 -0.56445,0.81139 -1.12889,1.97556 -1.51695,3.175 -1.83445,3.35139 -5.43278,3.28083 -4.86834,-0.0705 -7.3025,-0.81139 -16.40417,-4.86833 l -2.08139,-0.91722 1.23472,1.37583 c 1.23473,1.37583 4.26862,6.27944 6.0325,9.73667 0.81139,1.62277 0.84667,1.79916 0.38806,3.70416 -1.12889,4.974168 -3.21028,9.842498 -6.45583,15.204728 -0.98778,1.65805 -1.79917,3.10444 -1.79917,3.21027 0,0.14112 1.37583,0.35278 3.06917,0.49389 3.28083,0.24695 5.50333,1.02306 6.6675,2.36361 l 0.67027,0.74084 -1.30527,-0.21167 c -1.02306,-0.14111 -1.27,-0.10583 -1.09361,0.3175 0.28222,0.74083 -0.38806,0.59972 -2.43417,-0.42333 -1.69333,-0.84667 -2.08139,-0.91722 -4.51556,-0.70556 -3.42194,0.28222 -5.92666,-0.0353 -6.35,-0.84666 -0.21166,-0.42334 0.17639,-2.75167 1.19945,-7.44362 1.69333,-7.37305 2.36361,-9.77194 3.42194,-11.46527 0.9525,-1.587498 0.84667,-2.046118 -0.70555,-3.280838 l -1.37584,-1.09361 -0.24694,-5.46805 c -0.14111,-3.03389 -0.3175,-5.43278 -0.38806,-5.36223 -0.0705,0.0706 -0.28222,2.89278 -0.49389,6.27945 -0.49389,8.21972 -0.70555,8.995828 -3.03389,12.629438 -2.29305,3.45723 -3.633613,5.15056 -8.043333,10.05417 -3.59833,3.98639 -3.59833,4.02167 0.635,4.05694 1.69333,0.0353 2.92806,0.24695 3.95111,0.74084 2.575283,1.27 3.563063,3.10444 1.164173,2.2225 -0.917221,-0.35278 -1.023063,-0.35278 -0.670281,0.10583 0.705561,0.81139 -0.776112,0.635 -2.363612,-0.3175 -1.23472,-0.70555 -1.69333,-0.77611 -5.715,-0.67028 -3.70417,0.10584 -4.445,0.0353 -5.00945,-0.49389 -0.38805,-0.3175 -0.67027,-0.88194 -0.67027,-1.19944 0,-0.67028 3.59833,-8.99583 5.85611,-13.54667 0.74083,-1.55222 2.11667,-3.59833 2.99861,-4.58611 l 1.62278,-1.799168 -1.72861,-4.40972 c -3.21028,-8.14917 -4.05695,-13.29972 -2.96334,-17.60361 0.56445,-2.18722 0.56445,-2.29306 -0.0353,-2.64583 -0.35278,-0.17639 -1.62278,-1.27 -2.82223,-2.43417 -3.81,-3.66889 -6.10305,-9.34861 -6.10305,-15.27528 0,-12.84111 9.45444,-25.823334 21.731113,-29.845001 3.21028,-1.058334 7.69056,-1.446389 10.90083,-0.9525 z m 35.454166,34.184171 c -0.91722,0.91722 -0.88194,1.76389 0,2.75166 1.05834,1.12889 1.44639,0.9525 0.88195,-0.38805 -0.56445,-1.41111 -0.21167,-2.01083 1.19944,-2.01083 0.88195,-0.0353 0.88195,-0.0353 0.24695,-0.52917 -0.9525,-0.70556 -1.48167,-0.67028 -2.32834,0.17639 z m 8.29028,3.52778 c 0,0.28222 0.28223,0.56444 0.59973,0.635 0.45861,0.0706 0.635,-0.10584 0.635,-0.635 0,-0.52917 -0.17639,-0.70556 -0.635,-0.635 -0.3175,0.0705 -0.59973,0.35277 -0.59973,0.635 z"
       id="path18"
       style="stroke-width:0.0352778" />
    <path
       d="m 105.02793,79.696802 c 0,2.39889 -0.635,6.10306 -2.11667,12.13556 l -1.02305,4.16278 2.08139,7.443608 c 1.16417,4.09222 2.25778,8.32556 2.46944,9.34861 0.49389,2.29306 1.05834,2.75167 4.19806,3.28084 2.2225,0.35277 5.78556,2.04611 5.715,2.68111 -0.0353,0.56444 -2.11667,0.56444 -3.45722,0 -0.74084,-0.3175 -2.36361,-0.52917 -4.02167,-0.52917 -3.56306,0 -4.40973,-0.35278 -4.86834,-1.94028 -0.17639,-0.70555 -1.48166,-2.99861 -2.8575,-5.11528 -1.375826,-2.11666 -3.457216,-5.715 -4.621386,-8.00805 l -2.15194,-4.162778 0.14111,-2.99861 c 0.14111,-2.89278 0.17639,-3.10445 2.01083,-5.99722 1.02306,-1.65806 2.68112,-4.7625 3.704166,-6.87917 1.905,-3.95111 2.57528,-4.83306 3.98639,-5.25639 0.77611,-0.24694 0.81139,-0.17639 0.81139,1.83444 z"
       id="path26"
       style="stroke-width:0.0352778" />
  </g>
</svg>
